<svg id="Warstwa_1" data-name="Warstwa 1" xmlns="http://www.w3.org/2000/svg" viewBox="0 0 83.81 85.04"><defs><style>.cls-1{fill:#113bd4;}.cls-2{fill:#fff;}</style></defs><rect class="cls-1" width="83.81" height="85.04" rx="5.24"/><path class="cls-2" d="M22.78,28.78a54.92,54.92,0,0,1,9.14-.62c4.17,0,7.15.8,9.14,2.39a8.75,8.75,0,0,1,3.2,6.92,9.56,9.56,0,0,1-2.75,7.1c-2.31,2.18-5.73,3.15-9.72,3.15a16.88,16.88,0,0,1-2.31-.13V58.28h-6.7Zm6.7,13.58a10.68,10.68,0,0,0,2.27.17c3.59,0,5.81-1.82,5.81-4.88,0-2.75-1.91-4.39-5.28-4.39a11.15,11.15,0,0,0-2.8.27Z"/><path class="cls-2" d="M47.36,52.38A13.16,13.16,0,0,0,53.18,54c2,0,2.88-.7,2.88-1.81s-.67-1.65-3.19-2.49c-4.49-1.51-6.22-3.95-6.17-6.52,0-4,3.46-7.1,8.83-7.1a14.62,14.62,0,0,1,6.12,1.24L60.45,42a10.66,10.66,0,0,0-4.7-1.24c-1.64,0-2.57.66-2.57,1.77S54,44.09,56.68,45c4.13,1.42,5.86,3.5,5.9,6.7,0,4-3.19,7-9.4,7a15.32,15.32,0,0,1-7-1.51Z"/></svg>