<svg id="Warstwa_1" data-name="Warstwa 1" xmlns="http://www.w3.org/2000/svg" viewBox="0 0 417.67 80.47"><path d="M94.75,4.41a11,11,0,0,1,3.81,4.66,16,16,0,0,1,1.31,6.57,16,16,0,0,1-1.31,6.56,11,11,0,0,1-3.81,4.67,10.35,10.35,0,0,1-6,1.72H79.93a2.22,2.22,0,0,1-2.26-2.26V4.94a2.21,2.21,0,0,1,.65-1.61,2.19,2.19,0,0,1,1.61-.64h8.84A10.27,10.27,0,0,1,94.75,4.41ZM93.4,21.87a10.89,10.89,0,0,0,1.66-6.23A10.83,10.83,0,0,0,93.38,9.4a5.64,5.64,0,0,0-5-2.46H82.3V24.33h6.1A5.64,5.64,0,0,0,93.4,21.87Z"/><path d="M121.74,24a9.43,9.43,0,0,1-3.64,3.64,10.65,10.65,0,0,1-10.2,0A9.38,9.38,0,0,1,104.28,24a10.58,10.58,0,0,1-1.34-5.31,10.55,10.55,0,0,1,1.34-5.31,9.43,9.43,0,0,1,3.62-3.66,10.51,10.51,0,0,1,10.2,0,9.48,9.48,0,0,1,3.64,3.66,10.55,10.55,0,0,1,1.33,5.31A10.57,10.57,0,0,1,121.74,24Zm-3.87-8.55a5.54,5.54,0,0,0-2-2.2,5.52,5.52,0,0,0-5.66,0,5.64,5.64,0,0,0-2,2.2,6.86,6.86,0,0,0-.76,3.24,6.75,6.75,0,0,0,.76,3.22,5.72,5.72,0,0,0,2,2.18,5.52,5.52,0,0,0,5.66,0,5.62,5.62,0,0,0,2-2.18,6.63,6.63,0,0,0,.76-3.22A6.74,6.74,0,0,0,117.87,15.47Z"/><path d="M134.89,11.83a2,2,0,0,1,.5,1.25,1.65,1.65,0,0,1-.31,1,2.27,2.27,0,0,1-.83.7L131.58,16V26.33a2.16,2.16,0,0,1-.65,1.61,2.18,2.18,0,0,1-1.61.65,2.09,2.09,0,0,1-1.55-.65,2.22,2.22,0,0,1-.63-1.61V18l-.85.41a1.8,1.8,0,0,1-.85.19,1.59,1.59,0,0,1-1.31-.63,2,2,0,0,1-.5-1.26,1.6,1.6,0,0,1,.31-1,2.18,2.18,0,0,1,.83-.7L127.14,14V3.46a2.21,2.21,0,0,1,.65-1.61,2.19,2.19,0,0,1,1.61-.64,2.07,2.07,0,0,1,1.55.64,2.23,2.23,0,0,1,.63,1.61V11.9l1.15-.52a2.45,2.45,0,0,1,.85-.18A1.59,1.59,0,0,1,134.89,11.83Z"/><path d="M154.69,32.55a1.77,1.77,0,0,1,.46,1.29,1.92,1.92,0,0,1-.61,1.26,4.57,4.57,0,0,1-1.61,1.09,5.33,5.33,0,0,1-2.07.43,5,5,0,0,1-3.2-1,3.58,3.58,0,0,1-1.24-3,4.45,4.45,0,0,1,1.13-3.18,8.34,8.34,0,0,1,3-2V26.4a7.89,7.89,0,0,1-2.5,1.8,7.57,7.57,0,0,1-3.31.76,8.41,8.41,0,0,1-4.62-1.32A9.19,9.19,0,0,1,136.85,24a11.42,11.42,0,0,1-1.2-5.29,11.62,11.62,0,0,1,1.19-5.31,8.94,8.94,0,0,1,3.23-3.66,8.22,8.22,0,0,1,4.54-1.32,8.84,8.84,0,0,1,5.95,2.3v0a2.22,2.22,0,0,1,.63-1.61,2.13,2.13,0,0,1,1.59-.65,2.16,2.16,0,0,1,1.59.63,2.2,2.2,0,0,1,.63,1.63v17a1.52,1.52,0,0,1-.24.83A1.25,1.25,0,0,1,154,29a11,11,0,0,0-2.85,1.22,2,2,0,0,0-1.07,1.59,1.37,1.37,0,0,0,.33,1,1.08,1.08,0,0,0,.82.35,1,1,0,0,0,.78-.44,1.8,1.8,0,0,1,1.51-.66A1.56,1.56,0,0,1,154.69,32.55Zm-5.46-9.42a6.54,6.54,0,0,0,1.52-4.42,6.59,6.59,0,0,0-1.52-4.44,5.17,5.17,0,0,0-7.81,0,6.58,6.58,0,0,0-1.51,4.44,6.62,6.62,0,0,0,1.49,4.42,5.23,5.23,0,0,0,7.83,0Z"/><path d="M173.5,9.4A3,3,0,0,1,175.43,12a2.22,2.22,0,0,1-.49,1.43,1.54,1.54,0,0,1-1.25.61,2.33,2.33,0,0,1-1-.17,3.73,3.73,0,0,1-.73-.44,5.22,5.22,0,0,0-.68-.47,5,5,0,0,0-1.09-.33,6,6,0,0,0-1.17-.15,5.63,5.63,0,0,0-4.35,1.72,6.46,6.46,0,0,0-1.57,4.5,6.35,6.35,0,0,0,1.59,4.42,5.26,5.26,0,0,0,4.07,1.76,6.21,6.21,0,0,0,2.7-.45,3.62,3.62,0,0,0,.61-.39,4.34,4.34,0,0,1,.73-.42,2,2,0,0,1,.81-.15,1.88,1.88,0,0,1,1.46.59,2.17,2.17,0,0,1,.54,1.52,2.13,2.13,0,0,1-1,1.66,7.84,7.84,0,0,1-2.74,1.24,13.65,13.65,0,0,1-3.62.47,9.48,9.48,0,0,1-5-1.33,8.91,8.91,0,0,1-3.34-3.69,11.43,11.43,0,0,1-1.19-5.23,11.12,11.12,0,0,1,1.24-5.33,9.12,9.12,0,0,1,3.46-3.64,9.66,9.66,0,0,1,5-1.32A11.24,11.24,0,0,1,173.5,9.4Z"/><path d="M193,25.09a1.93,1.93,0,0,1,.6,1.46A2,2,0,0,1,193,28a2,2,0,0,1-1.48.59H179.57a2,2,0,0,1-2-1.93,3.15,3.15,0,0,1,.15-1.05,4,4,0,0,1,.55-1l8.81-11.4H179.9a2,2,0,0,1-2.07-2.07,1.9,1.9,0,0,1,.59-1.42,2,2,0,0,1,1.48-.58h11.4a1.89,1.89,0,0,1,1.39.58,1.92,1.92,0,0,1,.57,1.42,3.62,3.62,0,0,1-.11.94,3,3,0,0,1-.52.91l-8.88,11.51h7.73A2,2,0,0,1,193,25.09Z"/><path d="M224.75,1.84a2.19,2.19,0,0,1,.63,1.62V26.33a2.22,2.22,0,0,1-.63,1.61,2.14,2.14,0,0,1-1.6.65,2.09,2.09,0,0,1-1.57-.63,2.33,2.33,0,0,1-.64-1.59,7.76,7.76,0,0,1-2.5,1.83,7.61,7.61,0,0,1-3.31.76,8.42,8.42,0,0,1-4.63-1.32A9.17,9.17,0,0,1,207.23,24,11.42,11.42,0,0,1,206,18.71a11.62,11.62,0,0,1,1.19-5.31,9,9,0,0,1,3.24-3.66A8.19,8.19,0,0,1,215,8.42a8.63,8.63,0,0,1,3.33.65,8.79,8.79,0,0,1,2.63,1.65V3.46a2.27,2.27,0,0,1,.62-1.61,2.13,2.13,0,0,1,1.59-.64A2.16,2.16,0,0,1,224.75,1.84ZM219.6,23.13a6.54,6.54,0,0,0,1.52-4.42,6.59,6.59,0,0,0-1.52-4.44,4.9,4.9,0,0,0-3.92-1.78,4.85,4.85,0,0,0-3.88,1.78,6.54,6.54,0,0,0-1.52,4.44,6.58,6.58,0,0,0,1.5,4.42,4.89,4.89,0,0,0,3.9,1.76A5,5,0,0,0,219.6,23.13Z"/><path d="M247.87,24a9.43,9.43,0,0,1-3.64,3.64,10.65,10.65,0,0,1-10.2,0A9.45,9.45,0,0,1,230.41,24a10.58,10.58,0,0,1-1.34-5.31,10.55,10.55,0,0,1,1.34-5.31A9.5,9.5,0,0,1,234,9.74a10.51,10.51,0,0,1,10.2,0,9.48,9.48,0,0,1,3.64,3.66,10.55,10.55,0,0,1,1.33,5.31A10.57,10.57,0,0,1,247.87,24ZM244,15.47a5.54,5.54,0,0,0-2-2.2,5.52,5.52,0,0,0-5.66,0,5.64,5.64,0,0,0-2,2.2,6.86,6.86,0,0,0-.76,3.24,6.75,6.75,0,0,0,.76,3.22,5.72,5.72,0,0,0,2,2.18,5.52,5.52,0,0,0,5.66,0,5.62,5.62,0,0,0,2-2.18,6.63,6.63,0,0,0,.76-3.22A6.74,6.74,0,0,0,244,15.47Z"/><path d="M280.87,9.05a2.2,2.2,0,0,1,.63,1.63V26.33a2.22,2.22,0,0,1-.63,1.61,2.13,2.13,0,0,1-1.59.65,2.09,2.09,0,0,1-1.57-.63,2.34,2.34,0,0,1-.65-1.59A8,8,0,0,1,271.25,29a8.41,8.41,0,0,1-4.62-1.32A9.17,9.17,0,0,1,263.36,24a11.3,11.3,0,0,1-1.21-5.29,11.62,11.62,0,0,1,1.19-5.31,9.08,9.08,0,0,1,3.23-3.66,8.22,8.22,0,0,1,4.54-1.32,8.84,8.84,0,0,1,5.95,2.3v0a2.22,2.22,0,0,1,.63-1.61,2.13,2.13,0,0,1,1.59-.65A2.16,2.16,0,0,1,280.87,9.05Zm-5.14,14.08a6.54,6.54,0,0,0,1.52-4.42,6.59,6.59,0,0,0-1.52-4.44,5.17,5.17,0,0,0-7.81,0,6.58,6.58,0,0,0-1.51,4.44,6.58,6.58,0,0,0,1.5,4.42,4.88,4.88,0,0,0,3.9,1.76A5,5,0,0,0,275.73,23.13Z"/><path d="M303.48,26.37a2,2,0,0,1-.72,1.55,2.3,2.3,0,0,1-1.54.63,2.1,2.1,0,0,1-1.62-.74l-6.66-7-1.82,1.66v3.89a2.22,2.22,0,0,1-.63,1.61,2.27,2.27,0,0,1-3.18,0,2.22,2.22,0,0,1-.63-1.61V3.46a2.23,2.23,0,0,1,.63-1.61,2.3,2.3,0,0,1,3.18,0,2.23,2.23,0,0,1,.63,1.61V17.15L299,9.5a2.24,2.24,0,0,1,1.63-.71,2,2,0,0,1,1.46.69,2,2,0,0,1,.65,1.38,2.23,2.23,0,0,1-.89,1.67l-5.59,5.14,6.48,7A2.37,2.37,0,0,1,303.48,26.37Z"/><path d="M320.24,9.4A3,3,0,0,1,322.17,12a2.27,2.27,0,0,1-.49,1.43,1.54,1.54,0,0,1-1.25.61,2.41,2.41,0,0,1-1-.17,4,4,0,0,1-.72-.44,5.22,5.22,0,0,0-.68-.47,5,5,0,0,0-1.09-.33,6,6,0,0,0-1.17-.15,5.63,5.63,0,0,0-4.35,1.72,6.41,6.41,0,0,0-1.57,4.5,6.35,6.35,0,0,0,1.59,4.42,5.26,5.26,0,0,0,4.07,1.76,6.21,6.21,0,0,0,2.7-.45,3.62,3.62,0,0,0,.61-.39,4.34,4.34,0,0,1,.73-.42,2,2,0,0,1,.81-.15,1.88,1.88,0,0,1,1.46.59,2.17,2.17,0,0,1,.54,1.52,2.13,2.13,0,0,1-1,1.66,7.84,7.84,0,0,1-2.74,1.24A13.65,13.65,0,0,1,315,29a9.48,9.48,0,0,1-5-1.33,8.91,8.91,0,0,1-3.34-3.69,11.43,11.43,0,0,1-1.19-5.23,11.12,11.12,0,0,1,1.24-5.33,9.12,9.12,0,0,1,3.46-3.64,9.66,9.66,0,0,1,5-1.32A11.24,11.24,0,0,1,320.24,9.4Z"/><path d="M323.05,35.25a2,2,0,0,1-.59-1.48v-.41q0-1.49,1.89-2a2.11,2.11,0,0,0,1.5-1.23,7.43,7.43,0,0,0,.31-2.43V11.05a2.22,2.22,0,0,1,.63-1.61,2.27,2.27,0,0,1,3.18,0,2.22,2.22,0,0,1,.63,1.61V29a7.82,7.82,0,0,1-.79,3.62A5.89,5.89,0,0,1,327.62,35a5.74,5.74,0,0,1-3.09.85A2,2,0,0,1,323.05,35.25ZM326.53,6A1.75,1.75,0,0,1,326,4.54V3.83a1.67,1.67,0,0,1,.56-1.44,4.13,4.13,0,0,1,3.59,0,1.75,1.75,0,0,1,.52,1.44v.71A1.7,1.7,0,0,1,330.14,6a3.23,3.23,0,0,1-1.83.39A3,3,0,0,1,326.53,6Z"/><path d="M335.93,6a1.72,1.72,0,0,1-.52-1.44V3.83A1.67,1.67,0,0,1,336,2.39a4.13,4.13,0,0,1,3.59,0,1.75,1.75,0,0,1,.51,1.44v.71A1.72,1.72,0,0,1,339.54,6a3.23,3.23,0,0,1-1.83.39A3,3,0,0,1,335.93,6Zm3.4,22a2.27,2.27,0,0,1-3.18,0,2.22,2.22,0,0,1-.63-1.61V11.05a2.22,2.22,0,0,1,.63-1.61,2.27,2.27,0,0,1,3.18,0,2.22,2.22,0,0,1,.63,1.61V26.33A2.22,2.22,0,0,1,339.33,27.94Z"/><path d="M1.79,47a1.72,1.72,0,0,1-.52-1.44v-.71a1.7,1.7,0,0,1,.55-1.44A3.07,3.07,0,0,1,3.6,43a3,3,0,0,1,1.81.41,1.72,1.72,0,0,1,.52,1.44v.71A1.72,1.72,0,0,1,5.4,47a3.24,3.24,0,0,1-1.84.39A2.93,2.93,0,0,1,1.79,47Zm3.4,22a2.13,2.13,0,0,1-1.59.65A2.13,2.13,0,0,1,2,68.94a2.22,2.22,0,0,1-.63-1.61V52.05A2.22,2.22,0,0,1,2,50.44a2.13,2.13,0,0,1,1.59-.65,2.13,2.13,0,0,1,1.59.65,2.22,2.22,0,0,1,.63,1.61V67.33A2.22,2.22,0,0,1,5.19,68.94Z"/><path d="M45,50.44a2.29,2.29,0,0,1,.61,1.65,3.23,3.23,0,0,1-.15.85L39.82,68.18A2,2,0,0,1,39,69.24a2.23,2.23,0,0,1-1.24.38l-.3,0a2.15,2.15,0,0,1-1.88-1.41l-3.15-9.1-3,9.1a2.17,2.17,0,0,1-1.88,1.41l-.3,0A2.23,2.23,0,0,1,26,69.24a2,2,0,0,1-.79-1.06L19.58,52.94a2.7,2.7,0,0,1-.14-.85,2.31,2.31,0,0,1,.61-1.61,2,2,0,0,1,1.61-.69,2.3,2.3,0,0,1,1.27.35,1.92,1.92,0,0,1,.76,1.06l4,10.84,2.92-7.92a2.07,2.07,0,0,1,2-1.37,1.88,1.88,0,0,1,1.2.34,2.54,2.54,0,0,1,.72,1l2.85,7.73,4-10.65a1.88,1.88,0,0,1,.77-1.06,2.56,2.56,0,0,1,1.37-.35A2,2,0,0,1,45,50.44Z"/><path d="M47.48,65.41a1.93,1.93,0,0,1,1-1.63,2,2,0,0,1,1.08-.34,2.09,2.09,0,0,1,1.48.71,7.89,7.89,0,0,0,2.31,1.7,6.9,6.9,0,0,0,2.91.55c1.92-.07,2.88-.8,2.88-2.18a1.78,1.78,0,0,0-1-1.63,13.76,13.76,0,0,0-3-1.11,26.61,26.61,0,0,1-3.5-1.18,6.12,6.12,0,0,1-2.33-1.79,5,5,0,0,1-1-3.24,4.87,4.87,0,0,1,1-3.09,6.64,6.64,0,0,1,2.66-2,8.63,8.63,0,0,1,3.5-.72,10.7,10.7,0,0,1,3.77.71,6.4,6.4,0,0,1,3,2.07,2.05,2.05,0,0,1,.48,1.33,1.72,1.72,0,0,1-.7,1.41,1.87,1.87,0,0,1-1.18.4,1.8,1.8,0,0,1-1.34-.52,4.62,4.62,0,0,0-1.72-1.29,5.65,5.65,0,0,0-2.38-.48c-1.88,0-2.82.68-2.82,2A1.78,1.78,0,0,0,53,56.4a3.49,3.49,0,0,0,1.32.77c.53.19,1.27.42,2.23.69A24.42,24.42,0,0,1,59.91,59a5.68,5.68,0,0,1,2.26,1.82A5.17,5.17,0,0,1,63.1,64,4.9,4.9,0,0,1,62,67.2a6.67,6.67,0,0,1-2.75,2,8.89,8.89,0,0,1-3.46.71,12.34,12.34,0,0,1-4.55-.82,7.6,7.6,0,0,1-3.45-2.62A1.83,1.83,0,0,1,47.48,65.41Z"/><path d="M81.67,50.74A9.27,9.27,0,0,1,85,54.38a11.39,11.39,0,0,1,1.2,5.29A11.65,11.65,0,0,1,85,65a9,9,0,0,1-3.23,3.66A8.22,8.22,0,0,1,77.19,70a7.9,7.9,0,0,1-3.34-.72,9,9,0,0,1-2.61-1.76v7.25a2.22,2.22,0,0,1-.63,1.61,2.3,2.3,0,0,1-3.18,0,2.2,2.2,0,0,1-.63-1.63V52.05a2.22,2.22,0,0,1,.63-1.61,2.27,2.27,0,0,1,3.18,0,2.22,2.22,0,0,1,.63,1.61v.15a7.62,7.62,0,0,1,2.48-2,7.14,7.14,0,0,1,3.33-.83A8.41,8.41,0,0,1,81.67,50.74ZM80.38,64.11a7.27,7.27,0,0,0,0-8.86,4.88,4.88,0,0,0-3.9-1.76,5,5,0,0,0-3.92,1.76,7.22,7.22,0,0,0,0,8.86,5.17,5.17,0,0,0,7.81,0Z"/><path d="M90,47a1.75,1.75,0,0,1-.51-1.44v-.71A1.67,1.67,0,0,1,90,43.39,3.05,3.05,0,0,1,91.81,43a3,3,0,0,1,1.81.41,1.72,1.72,0,0,1,.52,1.44v.71A1.7,1.7,0,0,1,93.6,47a3.23,3.23,0,0,1-1.83.39A3,3,0,0,1,90,47Zm3.41,22a2.27,2.27,0,0,1-3.18,0,2.22,2.22,0,0,1-.63-1.61V52.05a2.22,2.22,0,0,1,.63-1.61,2.27,2.27,0,0,1,3.18,0A2.22,2.22,0,0,1,94,52.05V67.33A2.22,2.22,0,0,1,93.4,68.94Z"/><path d="M115.64,60.67a2.39,2.39,0,0,1-1.56.56H101.87a5.63,5.63,0,0,0,2,3.42,5.71,5.71,0,0,0,3.59,1.24,8,8,0,0,0,2.36-.28,6.27,6.27,0,0,0,1.35-.59l.69-.43a2.82,2.82,0,0,1,1.26-.33,1.82,1.82,0,0,1,1.33.55,1.79,1.79,0,0,1,.55,1.3,2.3,2.3,0,0,1-1,1.81,8.71,8.71,0,0,1-2.78,1.44,10.7,10.7,0,0,1-3.51.6,10.84,10.84,0,0,1-5.42-1.3,9,9,0,0,1-3.57-3.57A10.39,10.39,0,0,1,97.47,60a11.33,11.33,0,0,1,1.33-5.59,9.46,9.46,0,0,1,3.52-3.68A9.06,9.06,0,0,1,107,49.42a8.68,8.68,0,0,1,4.6,1.33A9.93,9.93,0,0,1,115,54.34a9.63,9.63,0,0,1,1.3,4.89A1.93,1.93,0,0,1,115.64,60.67Zm-13.73-3.15h9.69v-.25a3.83,3.83,0,0,0-1.51-2.67A4.82,4.82,0,0,0,107,53.49C104.12,53.49,102.43,54.84,101.91,57.52Z"/><path d="M132.19,50.05a1.86,1.86,0,0,1,.76,1.48,2.3,2.3,0,0,1-.59,1.72,2,2,0,0,1-1.41.57,3.64,3.64,0,0,1-1.25-.25l-.5-.15a2.84,2.84,0,0,0-.84-.11,3.27,3.27,0,0,0-1.85.59,4.28,4.28,0,0,0-1.46,1.79,6.68,6.68,0,0,0-.57,2.87v8.77a2.22,2.22,0,0,1-.63,1.61,2.27,2.27,0,0,1-3.18,0,2.22,2.22,0,0,1-.63-1.61V52.05a2.22,2.22,0,0,1,.63-1.61,2.27,2.27,0,0,1,3.18,0,2.22,2.22,0,0,1,.63,1.61v.48a5.62,5.62,0,0,1,2.44-2.31,7.52,7.52,0,0,1,3.4-.8A2.82,2.82,0,0,1,132.19,50.05Z"/><path d="M153.26,50.05a2.2,2.2,0,0,1,.63,1.63V67.33a2.22,2.22,0,0,1-.63,1.61,2.13,2.13,0,0,1-1.59.65A2.09,2.09,0,0,1,150.1,69a2.34,2.34,0,0,1-.65-1.59A8,8,0,0,1,143.64,70,8.41,8.41,0,0,1,139,68.64,9.27,9.27,0,0,1,135.74,65a11.42,11.42,0,0,1-1.2-5.29,11.62,11.62,0,0,1,1.19-5.31A9,9,0,0,1,139,50.74a8.22,8.22,0,0,1,4.54-1.32,8.84,8.84,0,0,1,5.95,2.3v0a2.22,2.22,0,0,1,.63-1.61,2.13,2.13,0,0,1,1.59-.65A2.16,2.16,0,0,1,153.26,50.05Zm-5.14,14.08a7.22,7.22,0,0,0,0-8.86,5.17,5.17,0,0,0-7.81,0,7.27,7.27,0,0,0,0,8.86,4.88,4.88,0,0,0,3.9,1.76A5,5,0,0,0,148.12,64.13Z"/><path d="M156.15,76.25a2,2,0,0,1-.59-1.48v-.41c0-1,.63-1.67,1.88-2a2.11,2.11,0,0,0,1.5-1.23,7.39,7.39,0,0,0,.32-2.43V52.05a2.22,2.22,0,0,1,.63-1.61,2.27,2.27,0,0,1,3.18,0,2.22,2.22,0,0,1,.63,1.61V70a7.82,7.82,0,0,1-.8,3.62A5.93,5.93,0,0,1,160.72,76a5.79,5.79,0,0,1-3.09.85A2,2,0,0,1,156.15,76.25ZM159.63,47a1.72,1.72,0,0,1-.52-1.44v-.71a1.67,1.67,0,0,1,.55-1.44,3.07,3.07,0,0,1,1.78-.41,3,3,0,0,1,1.81.41,1.72,1.72,0,0,1,.52,1.44v.71a1.7,1.7,0,0,1-.54,1.46,3.18,3.18,0,0,1-1.83.39A2.91,2.91,0,0,1,159.63,47Z"/><path d="M207.14,51.66a11.69,11.69,0,0,1,1.4,6.2v9.47a2.22,2.22,0,0,1-.63,1.61,2.27,2.27,0,0,1-3.18,0,2.22,2.22,0,0,1-.63-1.61V57.86a5.59,5.59,0,0,0-.79-3.2,3.16,3.16,0,0,0-2.8-1.17,4.26,4.26,0,0,0-3.24,1.24,4.42,4.42,0,0,0-1.16,3.13v9.47a2.22,2.22,0,0,1-.63,1.61,2.27,2.27,0,0,1-3.18,0,2.22,2.22,0,0,1-.63-1.61V57.86a5.59,5.59,0,0,0-.8-3.2,3.13,3.13,0,0,0-2.79-1.17,4.26,4.26,0,0,0-3.24,1.24,4.38,4.38,0,0,0-1.16,3.13v9.47a2.22,2.22,0,0,1-.63,1.61,2.27,2.27,0,0,1-3.18,0,2.22,2.22,0,0,1-.63-1.61V52.05a2.22,2.22,0,0,1,.63-1.61,2.27,2.27,0,0,1,3.18,0,2.22,2.22,0,0,1,.63,1.61v.59a8.81,8.81,0,0,1,2.53-2.27,6.41,6.41,0,0,1,3.42-.95q4.67,0,6,4.07a8.89,8.89,0,0,1,2.57-2.81,6.46,6.46,0,0,1,3.91-1.26Q205.73,49.42,207.14,51.66Z"/><path d="M231,50.05a2.2,2.2,0,0,1,.63,1.63V67.33a2.22,2.22,0,0,1-.63,1.61,2.13,2.13,0,0,1-1.59.65A2.09,2.09,0,0,1,227.8,69a2.34,2.34,0,0,1-.65-1.59A8,8,0,0,1,221.34,70a8.41,8.41,0,0,1-4.62-1.32A9.19,9.19,0,0,1,213.44,65a11.42,11.42,0,0,1-1.2-5.29,11.75,11.75,0,0,1,1.18-5.31,9,9,0,0,1,3.24-3.66,8.21,8.21,0,0,1,4.53-1.32,8.89,8.89,0,0,1,6,2.3v0a2.22,2.22,0,0,1,.63-1.61,2.13,2.13,0,0,1,1.59-.65A2.16,2.16,0,0,1,231,50.05Zm-5.14,14.08a7.22,7.22,0,0,0,0-8.86,5.17,5.17,0,0,0-7.81,0,7.29,7.29,0,0,0,0,8.86,5.23,5.23,0,0,0,7.83,0Z"/><path d="M244.52,52.83a2,2,0,0,1,.5,1.25,1.65,1.65,0,0,1-.31,1,2.27,2.27,0,0,1-.83.7L241.21,57V67.33A2.22,2.22,0,0,1,239,69.59a2.09,2.09,0,0,1-1.55-.65,2.22,2.22,0,0,1-.63-1.61V59l-.85.41a1.8,1.8,0,0,1-.85.19,1.59,1.59,0,0,1-1.31-.63,2,2,0,0,1-.5-1.26,1.6,1.6,0,0,1,.31-1,2.18,2.18,0,0,1,.83-.7L236.77,55V44.46a2.21,2.21,0,0,1,.65-1.61,2.19,2.19,0,0,1,1.61-.64,2.07,2.07,0,0,1,1.55.64,2.23,2.23,0,0,1,.63,1.61V52.9l1.15-.52a2.45,2.45,0,0,1,.85-.18A1.59,1.59,0,0,1,244.52,52.83Z"/><path d="M263.45,60.67a2.37,2.37,0,0,1-1.56.56H249.68a5.63,5.63,0,0,0,2,3.42,5.73,5.73,0,0,0,3.59,1.24,8.14,8.14,0,0,0,2.37-.28A6.75,6.75,0,0,0,259,65l.68-.43a2.82,2.82,0,0,1,1.26-.33,1.9,1.9,0,0,1,1.89,1.85,2.32,2.32,0,0,1-1,1.81,8.75,8.75,0,0,1-2.77,1.44,11.4,11.4,0,0,1-8.94-.7,9,9,0,0,1-3.57-3.57A10.39,10.39,0,0,1,245.28,60a11.44,11.44,0,0,1,1.33-5.59,9.46,9.46,0,0,1,3.52-3.68,9.08,9.08,0,0,1,4.66-1.28,8.74,8.74,0,0,1,4.61,1.33,10.1,10.1,0,0,1,3.46,3.59,9.72,9.72,0,0,1,1.29,4.89A1.89,1.89,0,0,1,263.45,60.67Zm-13.73-3.15h9.69v-.25a3.8,3.8,0,0,0-1.51-2.67,4.82,4.82,0,0,0-3.11-1.11C251.93,53.49,250.24,54.84,249.72,57.52Z"/><path d="M293.08,50.74a9.12,9.12,0,0,1,3.28,3.64,11.39,11.39,0,0,1,1.2,5.29A11.65,11.65,0,0,1,296.38,65a9,9,0,0,1-3.24,3.66A8.21,8.21,0,0,1,288.61,70a7.94,7.94,0,0,1-3.35-.72,9,9,0,0,1-2.61-1.76v.22a2.22,2.22,0,0,1-.63,1.61,2.13,2.13,0,0,1-1.59.65,2.16,2.16,0,0,1-1.59-.63,2.2,2.2,0,0,1-.63-1.63V44.46a2.23,2.23,0,0,1,.63-1.61,2.3,2.3,0,0,1,3.18,0,2.23,2.23,0,0,1,.63,1.61V52.2a7.73,7.73,0,0,1,2.48-2,7.14,7.14,0,0,1,3.33-.83A8.41,8.41,0,0,1,293.08,50.74Zm-1.29,13.37a7.25,7.25,0,0,0,0-8.86,5.23,5.23,0,0,0-7.83,0,7.25,7.25,0,0,0,0,8.86,5.17,5.17,0,0,0,7.81,0Z"/><path d="M301.41,47a1.72,1.72,0,0,1-.52-1.44v-.71a1.67,1.67,0,0,1,.56-1.44,4.11,4.11,0,0,1,3.58,0,1.72,1.72,0,0,1,.52,1.44v.71A1.72,1.72,0,0,1,305,47a3.24,3.24,0,0,1-1.84.39A2.93,2.93,0,0,1,301.41,47Zm3.4,22a2.27,2.27,0,0,1-3.18,0,2.22,2.22,0,0,1-.63-1.61V52.05a2.22,2.22,0,0,1,.63-1.61,2.27,2.27,0,0,1,3.18,0,2.22,2.22,0,0,1,.63,1.61V67.33A2.22,2.22,0,0,1,304.81,68.94Z"/><path d="M324.09,66.09a2,2,0,0,1,.59,1.46,2,2,0,0,1-.59,1.45,2,2,0,0,1-1.48.59H310.7a2,2,0,0,1-2-1.93,3.15,3.15,0,0,1,.15-1,3.7,3.7,0,0,1,.55-1l8.81-11.4H311a2,2,0,0,1-1.48-.59,2,2,0,0,1-.59-1.48,1.86,1.86,0,0,1,.59-1.42,2,2,0,0,1,1.48-.58h11.39a1.86,1.86,0,0,1,1.39.58,1.93,1.93,0,0,1,.58,1.42,3.21,3.21,0,0,1-.12.94,2.76,2.76,0,0,1-.51.91l-8.88,11.51h7.73A2.06,2.06,0,0,1,324.09,66.09Z"/><path d="M343.7,51.66a11.4,11.4,0,0,1,1.44,6.2v9.47a2.22,2.22,0,0,1-.63,1.61,2.27,2.27,0,0,1-3.18,0,2.22,2.22,0,0,1-.63-1.61V57.86a5.29,5.29,0,0,0-.85-3.2,3.37,3.37,0,0,0-2.92-1.17,4.55,4.55,0,0,0-3.37,1.24,4.3,4.3,0,0,0-1.22,3.13v9.47a2.22,2.22,0,0,1-.63,1.61,2.27,2.27,0,0,1-3.18,0,2.22,2.22,0,0,1-.63-1.61V52.05a2.22,2.22,0,0,1,.63-1.61,2.27,2.27,0,0,1,3.18,0,2.22,2.22,0,0,1,.63,1.61v.63a9.15,9.15,0,0,1,2.61-2.3,6.76,6.76,0,0,1,3.53-1Q342.26,49.42,343.7,51.66Z"/><path d="M367,60.67a2.36,2.36,0,0,1-1.55.56H353.24a5.63,5.63,0,0,0,2,3.42,5.73,5.73,0,0,0,3.59,1.24,8.14,8.14,0,0,0,2.37-.28,6.75,6.75,0,0,0,1.35-.59l.68-.43a2.89,2.89,0,0,1,1.26-.33,1.9,1.9,0,0,1,1.89,1.85,2.32,2.32,0,0,1-1,1.81,8.65,8.65,0,0,1-2.77,1.44,11.4,11.4,0,0,1-8.94-.7,9,9,0,0,1-3.57-3.57A10.39,10.39,0,0,1,348.84,60a11.44,11.44,0,0,1,1.33-5.59,9.46,9.46,0,0,1,3.52-3.68,9.08,9.08,0,0,1,4.66-1.28A8.74,8.74,0,0,1,363,50.75a10.1,10.1,0,0,1,3.46,3.59,9.72,9.72,0,0,1,1.29,4.89A1.89,1.89,0,0,1,367,60.67Zm-13.73-3.15H363v-.25a3.85,3.85,0,0,0-1.52-2.67,4.8,4.8,0,0,0-3.11-1.11C355.49,53.49,353.8,54.84,353.28,57.52Z"/><path d="M369.93,65.41a1.93,1.93,0,0,1,1-1.63,2,2,0,0,1,1.08-.34,2.11,2.11,0,0,1,1.48.71,7.89,7.89,0,0,0,2.31,1.7,6.88,6.88,0,0,0,2.9.55c1.93-.07,2.89-.8,2.89-2.18a1.78,1.78,0,0,0-1-1.63,14,14,0,0,0-3.05-1.11A26.61,26.61,0,0,1,374,60.3a6.12,6.12,0,0,1-2.33-1.79,5,5,0,0,1-1-3.24,4.87,4.87,0,0,1,1-3.09,6.57,6.57,0,0,1,2.66-2,8.63,8.63,0,0,1,3.5-.72,10.7,10.7,0,0,1,3.77.71,6.46,6.46,0,0,1,3,2.07,2.05,2.05,0,0,1,.48,1.33,1.72,1.72,0,0,1-.7,1.41,1.88,1.88,0,0,1-1.19.4,1.79,1.79,0,0,1-1.33-.52,4.7,4.7,0,0,0-1.72-1.29,5.68,5.68,0,0,0-2.38-.48c-1.88,0-2.82.68-2.82,2a1.78,1.78,0,0,0,.52,1.32,3.49,3.49,0,0,0,1.32.77c.52.19,1.27.42,2.23.69A24.42,24.42,0,0,1,382.36,59a5.75,5.75,0,0,1,2.26,1.82,5.17,5.17,0,0,1,.93,3.22,4.9,4.9,0,0,1-1.08,3.16,6.67,6.67,0,0,1-2.75,2,8.93,8.93,0,0,1-3.46.71,12.34,12.34,0,0,1-4.55-.82,7.6,7.6,0,0,1-3.45-2.62A1.83,1.83,0,0,1,369.93,65.41Z"/><path d="M405.53,50.44a2.25,2.25,0,0,1,.62,1.61V67.77q0,4.82-2.59,7a10.34,10.34,0,0,1-6.91,2.2,16.41,16.41,0,0,1-2.58-.21,9.44,9.44,0,0,1-2.12-.53c-1.21-.52-1.82-1.24-1.82-2.15a2,2,0,0,1,.11-.59,2.35,2.35,0,0,1,.76-1.24,1.88,1.88,0,0,1,1.17-.43,2.06,2.06,0,0,1,.7.12l.91.36a8.42,8.42,0,0,0,1.37.43,6.69,6.69,0,0,0,1.5.17,5.6,5.6,0,0,0,3.86-1.13c.83-.75,1.24-2,1.24-3.87v-.37q-1.92,2.42-6,2.41a6.46,6.46,0,0,1-3.41-.91,6.08,6.08,0,0,1-2.29-2.52,8.07,8.07,0,0,1-.82-3.68V52.05a2.22,2.22,0,0,1,.63-1.61,2.28,2.28,0,0,1,3.19,0,2.22,2.22,0,0,1,.63,1.61v9.47a4.61,4.61,0,0,0,1,3.35,4,4,0,0,0,3,1,3.89,3.89,0,0,0,3-1.13,4.58,4.58,0,0,0,1-3.24V52.05a2.22,2.22,0,0,1,.63-1.61,2.28,2.28,0,0,1,3.19,0Z"/><path d="M411.28,69a2.25,2.25,0,0,1-.57-1.65V66.7a2.27,2.27,0,0,1,.57-1.65,2.23,2.23,0,0,1,1.65-.57h.48a2.23,2.23,0,0,1,1.64.57,2.27,2.27,0,0,1,.58,1.65v.63a2.25,2.25,0,0,1-.58,1.65,2.23,2.23,0,0,1-1.64.57h-.48A2.23,2.23,0,0,1,411.28,69Z"/></svg>