<svg id="Warstwa_1" data-name="Warstwa 1" xmlns="http://www.w3.org/2000/svg" viewBox="0 0 83.81 85.04"><defs><style>.cls-1{fill:#ea3826;}.cls-2{fill:#fff;}</style></defs><rect class="cls-1" width="83.81" height="85.04" rx="5.24"/><path class="cls-2" d="M31.3,50.61l-2.13,7.67h-7l9.14-29.9h8.88l9.27,29.9H42.17l-2.3-7.67Zm7.59-5.06L37,39.21c-.54-1.78-1.07-4-1.51-5.77h-.09c-.44,1.77-.89,4-1.38,5.77l-1.77,6.34Z"/><path class="cls-2" d="M59.92,30.55a3.39,3.39,0,0,1-3.64,3.38,3.4,3.4,0,1,1,0-6.79A3.38,3.38,0,0,1,59.92,30.55ZM53,58.28V36.59H59.7V58.28Z"/></svg>