<?xml version="1.0" encoding="utf-8"?>
<!-- Generator: Adobe Illustrator 24.1.0, SVG Export Plug-In . SVG Version: 6.00 Build 0)  -->
<svg version="1.1" id="Warstwa_1" xmlns="http://www.w3.org/2000/svg" xmlns:xlink="http://www.w3.org/1999/xlink" x="0px" y="0px"
	 viewBox="0 0 1130.3 225.5" style="enable-background:new 0 0 1130.3 225.5;" xml:space="preserve">
<style type="text/css">
	.st0{fill:none;stroke:#EA3826;stroke-width:66;stroke-miterlimit:10;}
	.st1{fill:#E3B6E7;}
	.st2{fill:#FFFFFF;stroke:#231F20;stroke-width:5;stroke-miterlimit:10;}
	.st3{enable-background:new    ;}
	.st4{fill:#231F20;}
</style>
<line class="st0" x1="426.2" y1="42.4" x2="238" y2="87.4"/>
<polygon class="st1" points="691.8,140.8 669.2,156.3 679.2,181.8 651.9,183.9 647.7,211 623,199.2 605.9,220.6 590.3,198.1 
	564.8,208 562.7,180.7 535.6,176.5 547.4,151.8 526,134.7 548.6,119.1 538.7,93.6 566,91.5 570.1,64.4 594.8,76.2 612,54.8 
	627.5,77.4 653,67.4 655.2,94.8 682.2,98.9 670.5,123.6 "/>
<path d="M684.8,159.6c-0.5-1.1-0.6-2.3-0.2-3.5l0.3-1.2c0.2-1.2,0.9-2.2,1.9-2.9c1-0.6,2.3-0.7,3.4-0.3l0.9,0.2
	c1.2,0.2,2.2,0.9,2.8,1.9c0.5,1.1,0.6,2.3,0.2,3.5l-0.3,1.2c-0.2,1.2-0.9,2.2-1.9,2.9c-1,0.6-2.3,0.7-3.4,0.3l-0.9-0.2
	C686.4,161.3,685.4,160.6,684.8,159.6z M690.4,142.3l5-27.1c0.2-1.4,1-2.6,2.1-3.4c1.1-0.8,2.5-1,3.8-0.6c1.3,0.3,2.4,1.2,3,2.4
	c0.6,1.3,0.6,2.7,0.1,4l-9,26c-0.6,1.8-1.7,2.5-3.2,2.1S690.1,144.1,690.4,142.3L690.4,142.3z"/>
<path d="M705.7,165.1c-0.5-1.1-0.6-2.3-0.2-3.5l0.3-1.2c0.2-1.2,0.9-2.2,1.9-2.9c1-0.6,2.3-0.7,3.4-0.3l0.9,0.2
	c1.2,0.2,2.2,0.9,2.8,1.9c0.5,1.1,0.6,2.3,0.2,3.5l-0.3,1.2c-0.2,1.2-0.9,2.2-1.9,2.9c-1,0.6-2.3,0.7-3.4,0.3l-0.9-0.2
	C707.3,166.8,706.3,166.1,705.7,165.1z M711.3,147.8l5-27c0.2-1.4,1-2.6,2.1-3.4c1.1-0.8,2.5-1,3.8-0.6c1.3,0.3,2.4,1.2,3,2.4
	c0.6,1.3,0.6,2.7,0.1,4l-9,26c-0.6,1.8-1.7,2.5-3.2,2.1C711.6,150.8,711,149.6,711.3,147.8z"/>
<path d="M726.5,170.6c-0.5-1.1-0.6-2.3-0.2-3.5l0.3-1.2c0.2-1.2,0.9-2.2,1.9-2.9c1-0.6,2.3-0.7,3.4-0.3l0.9,0.2
	c1.2,0.2,2.2,0.9,2.8,1.9c0.5,1.1,0.6,2.3,0.2,3.5l-0.3,1.2c-0.2,1.2-0.9,2.2-1.9,2.9c-1,0.6-2.3,0.7-3.4,0.3l-0.9-0.2
	C728.2,172.3,727.2,171.6,726.5,170.6z M732.2,153.3l5-27c0.2-1.4,1-2.6,2.1-3.4c1.1-0.8,2.5-1,3.8-0.6c1.3,0.3,2.4,1.2,3,2.4
	c0.6,1.3,0.6,2.7,0.1,4l-9,26c-0.6,1.8-1.7,2.5-3.2,2.1S731.9,155.1,732.2,153.3z"/>
<path class="st2" d="M837.8,128.5c-77.1-86-158-46.3-161.3-44.5L652.7,24c2.9-1.6,30.2-15.4,69.9-15.4h0.3
	c37,0.2,92.4,13.1,146.4,73.2c30,33.4,68.6,49.3,106.2,48.4c35-0.8,82.1-42.9,103-74.2l41.9,44.6
	C1017.6,250.2,887.9,184.4,837.8,128.5z"/>
<g class="st3">
	<path d="M703.7,32.9c0.5,0.3,0.8,0.8,0.9,1.5c0,0.2,0,0.5,0,0.9l-2.7,15.9c-0.1,0.5-0.3,0.9-0.6,1.2c-0.3,0.3-0.7,0.5-1.1,0.6
		l-0.3,0c-0.8,0.1-1.5-0.2-2.1-1l-4.8-8.3l-1.2,9.4c-0.2,0.9-0.8,1.5-1.6,1.7l-0.3,0.1c-0.4,0.1-0.9,0-1.3-0.1
		c-0.4-0.2-0.7-0.5-1-0.9l-8.4-13.8c-0.1-0.2-0.2-0.5-0.3-0.8c-0.1-0.6,0-1.2,0.3-1.7c0.3-0.5,0.8-0.8,1.4-1
		c0.5-0.1,0.9-0.1,1.3,0.1c0.4,0.2,0.7,0.5,0.9,0.9l5.9,9.8l1.4-8.3c0.2-1,0.8-1.5,1.7-1.7c0.5-0.1,0.9-0.1,1.2,0.1s0.6,0.5,0.9,0.9
		l4.2,7l1.9-11.1c0.1-0.5,0.2-0.9,0.6-1.2c0.3-0.3,0.7-0.5,1.3-0.6C702.7,32.5,703.2,32.6,703.7,32.9z"/>
</g>
<g class="st3">
	<path d="M708.7,47.7c0-0.6,0.3-1.2,0.9-1.6c0.3-0.2,0.7-0.4,1.1-0.4c0.5,0,1,0.2,1.5,0.7c0.8,0.7,1.5,1.3,2.3,1.6
		c0.8,0.3,1.8,0.5,2.9,0.5c1.9-0.1,2.8-0.9,2.8-2.3c0-0.7-0.4-1.2-1-1.6c-0.7-0.3-1.7-0.7-3.1-1c-1.4-0.3-2.6-0.7-3.5-1.1
		c-0.9-0.4-1.7-0.9-2.4-1.7s-1-1.8-1.1-3.2c0-1.2,0.3-2.2,0.9-3.1s1.5-1.6,2.6-2.1c1.1-0.5,2.2-0.8,3.5-0.8c1.3,0,2.5,0.2,3.8,0.6
		c1.3,0.4,2.3,1.1,3,2c0.3,0.4,0.5,0.8,0.5,1.3c0,0.6-0.2,1-0.7,1.4c-0.3,0.3-0.7,0.4-1.2,0.4c-0.5,0-1-0.1-1.3-0.5
		c-0.5-0.5-1-0.9-1.8-1.2c-0.7-0.3-1.5-0.4-2.4-0.4c-1.9,0.1-2.8,0.8-2.7,2.1c0,0.5,0.2,1,0.6,1.3c0.4,0.3,0.8,0.6,1.3,0.7
		c0.5,0.2,1.3,0.4,2.2,0.6c1.3,0.3,2.5,0.7,3.3,1c0.9,0.4,1.7,0.9,2.3,1.7s1,1.8,1,3.2c0,1.2-0.3,2.3-1,3.2
		c-0.7,0.9-1.6,1.6-2.7,2.1c-1.1,0.5-2.2,0.8-3.4,0.8c-1.6,0-3.1-0.2-4.5-0.7c-1.4-0.5-2.6-1.3-3.5-2.5
		C708.8,48.5,708.7,48.1,708.7,47.7z"/>
</g>
<g class="st3">
	<path d="M743.9,34.4c1.3,1,2.2,2.3,2.8,3.9c0.6,1.6,0.8,3.4,0.6,5.3c-0.2,1.9-0.8,3.6-1.7,5.1c-0.9,1.5-2.1,2.5-3.6,3.3
		c-1.4,0.7-3,1-4.6,0.8c-1.2-0.1-2.2-0.5-3.2-1.1c-1-0.6-1.8-1.3-2.4-2l-0.8,7.1c-0.1,0.6-0.3,1.1-0.8,1.5c-0.5,0.4-1,0.5-1.6,0.5
		c-0.6-0.1-1.1-0.3-1.5-0.8c-0.4-0.5-0.5-1-0.4-1.7l2.5-22.3c0.1-0.6,0.3-1.1,0.8-1.5c0.5-0.4,1-0.5,1.6-0.5
		c0.6,0.1,1.1,0.3,1.5,0.8c0.4,0.5,0.5,1,0.4,1.7l0,0.1c0.7-0.7,1.5-1.2,2.7-1.6c1.1-0.4,2.2-0.6,3.4-0.5
		C741.1,32.8,742.6,33.4,743.9,34.4z M741.1,47.5c1.1-1.1,1.8-2.5,2-4.2c0.2-1.7-0.1-3.3-1-4.5c-0.9-1.3-2.1-2-3.6-2.2
		c-1.6-0.2-2.9,0.3-4.1,1.3c-1.1,1-1.8,2.4-2,4.2c-0.2,1.7,0.1,3.3,1,4.5c0.9,1.3,2.1,2,3.7,2.2C738.7,49,740,48.5,741.1,47.5z"/>
</g>
<g class="st3">
	<path d="M752.8,54.4c-0.5,0.3-1.1,0.4-1.7,0.3c-0.6-0.1-1.1-0.5-1.4-1c-0.3-0.5-0.4-1.1-0.3-1.7l3.2-14.9c0.1-0.6,0.4-1.1,0.9-1.4
		c0.5-0.3,1.1-0.4,1.7-0.3c0.6,0.1,1.1,0.5,1.4,1c0.3,0.5,0.4,1.1,0.3,1.7L753.8,53C753.7,53.6,753.3,54.1,752.8,54.4z M754.1,32.4
		c-0.3-0.3-0.3-0.8-0.2-1.5l0.1-0.7c0.1-0.7,0.4-1.1,0.8-1.3s1-0.2,1.8,0c0.8,0.2,1.4,0.4,1.7,0.8c0.3,0.3,0.3,0.8,0.2,1.5l-0.1,0.7
		c-0.1,0.7-0.4,1.1-0.8,1.3c-0.4,0.2-1,0.2-1.9,0C754.9,33,754.4,32.7,754.1,32.4z"/>
</g>
<g class="st3">
	<path d="M776,52.6c-0.5,0.2-1.1,0.2-1.6,0.1L762.8,49c-0.2,1.5,0.1,2.8,0.9,3.9c0.8,1.1,1.8,1.8,3,2.2c1,0.3,1.7,0.5,2.3,0.4
		c0.6,0,1.1-0.1,1.5-0.2c0.4-0.1,0.6-0.2,0.8-0.2c0.5-0.1,0.9-0.1,1.3,0.1c0.5,0.2,0.9,0.5,1.1,0.9s0.3,0.9,0.1,1.4
		c-0.2,0.6-0.7,1.1-1.5,1.4c-0.8,0.3-1.8,0.5-3.1,0.5c-1.2,0-2.4-0.1-3.5-0.5c-2-0.6-3.5-1.6-4.8-2.8c-1.2-1.3-2-2.8-2.3-4.5
		c-0.3-1.7-0.2-3.4,0.3-5.2c0.6-2,1.6-3.6,2.9-4.9c1.3-1.3,2.8-2.1,4.4-2.4c1.6-0.4,3.2-0.3,4.8,0.2c1.5,0.5,2.9,1.4,4,2.6
		c1.1,1.3,1.8,2.8,2.2,4.4c0.4,1.7,0.3,3.4-0.2,5C776.9,52,776.6,52.3,776,52.6z M763.9,45.5l9.2,2.9l0.1-0.2c0.2-1,0-2-0.6-3
		c-0.6-1-1.5-1.6-2.6-2C767.2,42.3,765.2,43.1,763.9,45.5z"/>
</g>
<g class="st3">
	<path d="M795.7,49.8c0.3,0.6,0.3,1.1,0.1,1.6c-0.3,0.7-0.7,1.1-1.2,1.3s-1,0.2-1.5-0.1c-0.3-0.2-0.7-0.4-1-0.7
		c-0.1-0.1-0.2-0.2-0.4-0.3c-0.2-0.2-0.4-0.3-0.7-0.4c-0.6-0.3-1.2-0.3-1.9-0.2c-0.7,0.1-1.4,0.5-2.1,1c-0.7,0.6-1.2,1.4-1.7,2.4
		l-3.6,7.9c-0.3,0.6-0.7,1-1.2,1.2c-0.6,0.2-1.1,0.2-1.7-0.1c-0.6-0.3-1-0.7-1.2-1.2c-0.2-0.6-0.2-1.1,0.1-1.7l6.2-13.8
		c0.3-0.6,0.7-1,1.2-1.2c0.6-0.2,1.1-0.2,1.7,0.1c0.6,0.3,1,0.7,1.2,1.2c0.2,0.6,0.2,1.1-0.1,1.7l-0.2,0.4c0.9-0.7,2-1,3.2-1.1
		c1.2,0,2.3,0.2,3.4,0.7C794.9,48.8,795.4,49.2,795.7,49.8z"/>
</g>
<g class="st3">
	<path d="M815.2,60.5c0.2,0.6,0.1,1.1-0.3,1.7l-7.8,13.5c-0.3,0.6-0.8,0.9-1.3,1.1c-0.6,0.2-1.1,0.1-1.7-0.2s-0.9-0.8-1-1.3
		c-0.1-0.6-0.1-1.1,0.2-1.7c-0.9,0.3-1.9,0.4-3.1,0.3c-1.2-0.1-2.2-0.4-3.2-1c-1.5-0.8-2.6-2-3.3-3.4c-0.8-1.4-1.1-3-1-4.8
		c0.1-1.7,0.6-3.5,1.6-5.2c1-1.7,2.2-3,3.7-4s3-1.5,4.6-1.5c1.6-0.1,3.1,0.3,4.6,1.1c1,0.6,1.9,1.3,2.5,2.2c0.7,0.9,1.2,1.8,1.4,2.7
		l0,0c0.3-0.6,0.8-0.9,1.3-1.1c0.6-0.2,1.1-0.1,1.7,0.2S815.1,59.9,815.2,60.5z M803.8,70c1.5-0.5,2.6-1.5,3.5-3.1
		c0.9-1.5,1.2-3.1,0.9-4.6c-0.3-1.5-1.1-2.7-2.5-3.5c-1.4-0.8-2.8-0.9-4.2-0.4c-1.5,0.5-2.6,1.5-3.5,3.1c-0.9,1.5-1.2,3-0.9,4.6
		s1.1,2.7,2.5,3.5C800.9,70.4,802.4,70.6,803.8,70z"/>
</g>
<g class="st3">
	<path d="M803.7,84.1c-0.1-0.5,0-1.1,0.4-1.5l0.2-0.3c0.6-0.8,1.5-1,2.7-0.6c0.8,0.2,1.4,0.2,1.9-0.2c0.5-0.4,1-1,1.6-1.8l9.4-13.6
		c0.4-0.5,0.8-0.8,1.4-1c0.6-0.1,1.1,0,1.7,0.4c0.5,0.4,0.8,0.8,0.9,1.4c0.1,0.6,0,1.1-0.4,1.7l-10.1,14.6c-0.8,1.1-1.7,2-2.7,2.5
		s-2.1,0.8-3.1,0.7c-1.1-0.1-2.1-0.4-3-1.1C804.1,85.1,803.8,84.7,803.7,84.1z M823.1,62.2c-0.1-0.4,0-0.9,0.4-1.5l0.4-0.6
		c0.4-0.6,0.8-0.9,1.3-0.9c0.5,0,1,0.2,1.7,0.7c0.7,0.5,1.1,0.9,1.2,1.4s0,0.9-0.4,1.5l-0.4,0.6c-0.4,0.6-0.8,0.9-1.3,0.9
		c-0.4,0-1-0.2-1.7-0.7C823.6,63,823.2,62.6,823.1,62.2z"/>
</g>
<g class="st3">
	<path d="M850.2,89.8c-0.3,1.7-1.2,3.6-2.9,5.6l-6.1,7.2c-0.4,0.5-0.9,0.8-1.5,0.8c-0.6,0.1-1.1-0.1-1.6-0.5
		c-0.5-0.4-0.7-0.9-0.8-1.5c0-0.6,0.1-1.1,0.6-1.6l6.1-7.2c0.9-1,1.4-2,1.5-2.9c0.1-0.9-0.4-1.8-1.4-2.7c-1-0.9-2.1-1.3-3.2-1.2
		c-1.1,0.1-2.1,0.7-2.9,1.6l-6.1,7.2c-0.4,0.5-0.9,0.8-1.5,0.8c-0.6,0.1-1.1-0.1-1.6-0.5s-0.7-0.9-0.8-1.5c0-0.6,0.2-1.1,0.6-1.6
		l6.1-7.2c0.9-1,1.4-2,1.5-2.9c0.1-0.9-0.4-1.8-1.4-2.7c-1-0.9-2.1-1.3-3.2-1.2c-1.1,0.1-2.1,0.7-2.9,1.6l-6.1,7.2
		c-0.4,0.5-0.9,0.8-1.5,0.8c-0.6,0.1-1.1-0.1-1.6-0.5s-0.7-0.9-0.8-1.5c0-0.6,0.1-1.1,0.6-1.6l9.9-11.5c0.4-0.5,0.9-0.8,1.5-0.8
		c0.6-0.1,1.1,0.1,1.6,0.5s0.7,0.9,0.8,1.5c0,0.6-0.2,1.1-0.6,1.6l-0.4,0.4c1.1-0.2,2.2-0.3,3.4-0.1c1.2,0.2,2.2,0.7,3.2,1.5
		c2.3,2,3,4.3,1.9,6.9c1.1-0.4,2.4-0.6,3.8-0.5c1.4,0.1,2.7,0.6,3.8,1.6C849.7,86.4,850.5,88,850.2,89.8z"/>
</g>
<g class="st3">
	<path d="M867.3,105.7c0,0.6-0.3,1.1-0.7,1.6L855.3,118c-2.3,2.2-4.6,3.2-6.8,3c-2.2-0.2-4.3-1.4-6.3-3.4c-0.6-0.6-1.1-1.3-1.6-2
		c-0.5-0.7-0.9-1.4-1.1-1.9c-0.5-1.2-0.4-2.1,0.3-2.8c0.1-0.1,0.3-0.2,0.5-0.3c0.5-0.3,1-0.4,1.4-0.3c0.4,0.1,0.8,0.2,1.1,0.5
		c0.2,0.2,0.3,0.4,0.4,0.6c0.1,0.2,0.2,0.5,0.4,0.9c0.2,0.4,0.4,0.9,0.6,1.3c0.3,0.4,0.6,0.8,0.9,1.2c1.2,1.3,2.4,1.9,3.5,2
		c1.1,0.1,2.3-0.5,3.6-1.8l0.3-0.3c-2,0.2-4-0.7-5.8-2.6c-0.9-0.9-1.4-1.9-1.7-3.1c-0.2-1.1-0.2-2.2,0.2-3.4
		c0.4-1.1,1.1-2.2,2.1-3.1l7.7-7.4c0.5-0.4,1-0.7,1.6-0.7c0.6,0,1.1,0.2,1.6,0.7c0.4,0.5,0.6,1,0.6,1.6c0,0.6-0.3,1.1-0.7,1.6
		l-6.8,6.5c-1.1,1.1-1.7,2.1-1.7,3c0,1,0.4,1.9,1.3,2.8c0.9,0.9,1.8,1.4,2.9,1.4c1,0,2-0.5,3-1.5l6.8-6.5c0.5-0.4,1-0.7,1.6-0.7
		c0.6,0,1.1,0.2,1.6,0.7C867.1,104.5,867.3,105.1,867.3,105.7z"/>
</g>
<g class="st3">
	<path d="M867.5,127.1c0.4-0.5,1-0.7,1.8-0.6c0.4,0.1,0.7,0.2,1,0.4c0.4,0.3,0.6,0.8,0.7,1.5c0.1,1.1,0.3,2,0.6,2.8
		c0.4,0.8,1,1.6,1.8,2.3c1.5,1.2,2.7,1.3,3.6,0.2c0.5-0.5,0.6-1.2,0.3-1.9c-0.3-0.7-0.8-1.6-1.6-2.8c-0.8-1.2-1.5-2.3-1.9-3.2
		c-0.4-0.9-0.6-1.8-0.6-2.9c0-1,0.5-2.1,1.4-3.1c0.8-0.9,1.7-1.5,2.8-1.7c1.1-0.2,2.2-0.2,3.3,0.2c1.1,0.3,2.2,0.9,3.1,1.7
		c1,0.8,1.8,1.8,2.4,3c0.6,1.2,0.9,2.3,0.9,3.5c0,0.5-0.2,0.9-0.5,1.3c-0.4,0.4-0.8,0.6-1.4,0.6c-0.4,0-0.8-0.2-1.2-0.5
		c-0.4-0.4-0.6-0.8-0.7-1.3c0-0.7-0.1-1.4-0.5-2.1c-0.3-0.7-0.8-1.3-1.5-1.9c-1.4-1.2-2.6-1.3-3.4-0.3c-0.4,0.4-0.5,0.9-0.5,1.3
		c0,0.5,0.2,1,0.5,1.4c0.3,0.5,0.7,1.1,1.2,2c0.8,1.1,1.4,2.1,1.8,3c0.4,0.9,0.6,1.8,0.5,2.8s-0.5,2-1.4,3c-0.8,0.9-1.7,1.5-2.9,1.7
		c-1.1,0.2-2.3,0.1-3.4-0.2s-2.2-0.9-3.1-1.7c-1.2-1.1-2.2-2.2-2.9-3.6c-0.7-1.3-1-2.7-0.9-4.2C867,127.8,867.2,127.4,867.5,127.1z"
		/>
</g>
<g class="st3">
	<path d="M883.8,144.7c-0.6,0.1-1.1,0-1.7-0.4c-0.5-0.4-0.8-0.9-0.9-1.4c-0.1-0.6,0.1-1.1,0.4-1.7l8.9-12.3c0.4-0.5,0.9-0.8,1.4-0.9
		c0.6-0.1,1.1,0,1.7,0.4c0.5,0.4,0.8,0.9,0.9,1.4c0.1,0.6-0.1,1.1-0.4,1.7l-8.9,12.3C884.9,144.2,884.4,144.6,883.8,144.7z
		 M893.9,125c-0.1-0.4,0-0.9,0.4-1.5l0.4-0.6c0.4-0.6,0.8-0.8,1.3-0.8s1,0.2,1.7,0.7c0.7,0.5,1.1,1,1.2,1.4c0.1,0.4,0,0.9-0.4,1.5
		l-0.4,0.6c-0.4,0.6-0.8,0.9-1.3,0.9s-1-0.2-1.7-0.8C894.4,125.8,894,125.4,893.9,125z"/>
</g>
<g class="st3">
	<path d="M908,150c-0.6,0.1-1.1,0-1.6-0.3l-10.5-6.1c-0.5,1.4-0.5,2.7,0,4c0.5,1.2,1.3,2.2,2.5,2.9c0.9,0.5,1.6,0.8,2.2,0.9
		c0.6,0.1,1.1,0.2,1.5,0.2c0.4,0,0.7,0,0.8,0c0.5,0,0.9,0.1,1.3,0.3c0.5,0.3,0.8,0.7,0.9,1.3c0.1,0.6,0,1.1-0.2,1.5
		c-0.3,0.6-0.9,0.9-1.8,0.9c-1.3,0.1-2.4,0.3-3.3,0.6c-0.9,0.3-1.6,0.8-2,1.5c-0.2,0.4-0.3,0.7-0.2,1c0.1,0.3,0.2,0.5,0.5,0.7
		c0.3,0.1,0.6,0.2,0.9,0c0.5-0.2,1-0.2,1.6,0.2c0.4,0.2,0.7,0.6,0.8,1s0,0.9-0.3,1.3c-0.2,0.3-0.6,0.6-1.2,0.8
		c-0.6,0.2-1.2,0.2-1.9,0.1c-0.7-0.1-1.4-0.3-2-0.7c-1.1-0.7-1.9-1.5-2.2-2.5c-0.4-1-0.2-2,0.4-3.2c0.7-1.1,1.6-1.9,2.7-2.2
		l-0.4-0.2c-1.8-1-3.1-2.3-4-3.8c-0.9-1.5-1.3-3.1-1.3-4.9c0-1.7,0.5-3.4,1.5-5c1.1-1.8,2.4-3.2,3.9-4.1c1.6-0.9,3.2-1.4,4.9-1.4
		c1.7,0,3.2,0.4,4.6,1.2c1.4,0.8,2.5,2,3.3,3.5c0.8,1.5,1.2,3.1,1.2,4.8c0,1.7-0.5,3.3-1.3,4.8C909,149.6,908.6,149.9,908,150z
		 M897.8,140.4l8.3,4.9l0.1-0.2c0.4-0.9,0.4-2,0-3c-0.4-1.1-1.1-1.9-2.1-2.5C901.7,138,899.6,138.3,897.8,140.4z"/>
</g>
<g class="st3">
	<path d="M940.6,152.6c0.5,1.7,0.3,3.8-0.4,6.3l-2.7,9c-0.2,0.6-0.5,1.1-1.1,1.4c-0.5,0.3-1.1,0.3-1.7,0.2s-1.1-0.5-1.3-1.1
		c-0.3-0.5-0.3-1.1-0.1-1.7l2.7-9c0.4-1.3,0.4-2.4,0.1-3.3c-0.3-0.9-1.1-1.6-2.4-2c-1.4-0.4-2.5-0.3-3.6,0.2c-1,0.6-1.7,1.4-2.1,2.6
		l-2.7,9c-0.2,0.6-0.5,1.1-1.1,1.4c-0.5,0.3-1.1,0.3-1.7,0.2s-1.1-0.5-1.3-1.1s-0.3-1.1-0.1-1.7l4.4-14.5c0.2-0.6,0.5-1.1,1.1-1.3
		c0.5-0.3,1.1-0.3,1.7-0.2c0.6,0.2,1.1,0.5,1.3,1.1c0.3,0.5,0.3,1.1,0.1,1.7l-0.2,0.6c0.9-0.7,1.9-1.1,3.1-1.4
		c1.2-0.3,2.4-0.3,3.6,0.1C938.6,149.7,940.1,150.9,940.6,152.6z"/>
</g>
<g class="st3">
	<path d="M963.9,154.4c0.4,0.5,0.5,1,0.4,1.7l-1.8,15.5c-0.1,0.6-0.3,1.1-0.8,1.5c-0.5,0.4-1,0.5-1.6,0.5c-0.6-0.1-1.1-0.3-1.5-0.8
		c-0.4-0.5-0.5-1-0.5-1.6c-0.7,0.6-1.6,1.1-2.7,1.5c-1.1,0.4-2.2,0.5-3.4,0.4c-1.7-0.2-3.2-0.8-4.4-1.8c-1.3-1-2.2-2.3-2.8-4
		c-0.6-1.6-0.8-3.4-0.6-5.4c0.2-1.9,0.8-3.7,1.8-5.1c1-1.5,2.2-2.5,3.6-3.3c1.5-0.7,3-1,4.6-0.8c1.2,0.1,2.2,0.5,3.2,1
		c1,0.5,1.8,1.2,2.4,1.9l0,0c0.1-0.6,0.3-1.1,0.8-1.5c0.5-0.4,1-0.5,1.6-0.5C963,153.7,963.5,153.9,963.9,154.4z M957.2,167.7
		c1.1-1,1.8-2.4,2-4.2c0.2-1.8-0.1-3.3-1-4.6c-0.9-1.3-2.1-2-3.7-2.2c-1.6-0.2-2.9,0.3-4,1.3c-1.1,1.1-1.8,2.5-2,4.2
		c-0.2,1.8,0.1,3.3,1,4.5c0.9,1.3,2.1,2,3.7,2.2S956.1,168.7,957.2,167.7z"/>
</g>
<g class="st3">
	<path d="M992.5,152.8c0.4,0.4,0.7,0.9,0.8,1.6c0,0.2,0,0.5-0.1,0.9l-4.2,15.6c-0.1,0.5-0.3,0.8-0.7,1.1c-0.4,0.3-0.8,0.5-1.2,0.5
		l-0.3,0c-0.8,0-1.5-0.4-2-1.2l-4-8.7l-2.1,9.3c-0.3,0.9-0.9,1.4-1.7,1.6l-0.3,0.1c-0.4,0-0.9,0-1.3-0.3c-0.4-0.2-0.7-0.5-0.9-1
		l-7-14.6c-0.1-0.3-0.2-0.5-0.2-0.8c-0.1-0.6,0.1-1.2,0.5-1.7c0.4-0.5,0.9-0.8,1.5-0.8c0.5,0,0.9,0,1.3,0.2c0.4,0.2,0.7,0.5,0.9,1
		l5,10.4l2.1-8.1c0.3-0.9,0.9-1.5,1.9-1.5c0.5,0,0.9,0,1.2,0.2c0.3,0.2,0.6,0.5,0.8,1l3.6,7.4l2.9-10.9c0.1-0.5,0.3-0.8,0.7-1.1
		c0.3-0.3,0.8-0.4,1.3-0.5C991.5,152.3,992,152.5,992.5,152.8z"/>
</g>
<g class="st3">
	<path d="M1013.6,162.7c0.5,0.3,0.8,0.7,1,1.2c0.2,0.5,0.1,1.1-0.2,1.5c-0.3,0.5-0.7,0.8-1.2,1l-11.4,3.3c-0.5,0.2-1.1,0.1-1.5-0.2
		s-0.8-0.6-0.9-1.1c-0.1-0.4-0.2-0.7-0.2-1c0-0.3,0.1-0.7,0.3-1.1l5.2-13.3l-6.9,2c-0.6,0.2-1.1,0.1-1.6-0.2s-0.8-0.7-1-1.2
		c-0.2-0.5-0.1-1.1,0.2-1.5c0.3-0.5,0.7-0.8,1.3-1l10.9-3.2c0.5-0.2,1-0.1,1.5,0.2c0.5,0.3,0.8,0.7,0.9,1.2c0.1,0.4,0.2,0.7,0.2,0.9
		c0,0.3-0.1,0.6-0.2,1l-5.3,13.5l7.4-2.2C1012.6,162.4,1013.1,162.4,1013.6,162.7z"/>
</g>
<g class="st3">
	<path d="M1028.3,138.9c0.6,0.2,1,0.6,1.2,1.2l6.5,14.2c0.3,0.6,0.3,1.2,0.1,1.7c-0.2,0.6-0.6,1-1.2,1.2c-0.6,0.3-1.1,0.3-1.7,0.1
		c-0.5-0.2-1-0.6-1.2-1.2c-0.3,0.9-0.8,1.8-1.5,2.7s-1.6,1.6-2.7,2.1c-1.5,0.7-3.1,1-4.7,0.7c-1.6-0.2-3.1-0.9-4.5-1.9
		c-1.4-1.1-2.5-2.5-3.3-4.3c-0.8-1.8-1.2-3.6-1.1-5.3c0.1-1.7,0.5-3.3,1.4-4.7c0.9-1.4,2.1-2.4,3.6-3.1c1.1-0.5,2.2-0.8,3.3-0.8
		s2.1,0.1,3.1,0.4l0,0c-0.3-0.6-0.3-1.2-0.1-1.7c0.2-0.6,0.6-1,1.2-1.3C1027.1,138.8,1027.7,138.7,1028.3,138.9z M1029.5,153.8
		c0.4-1.5,0.3-3-0.5-4.6c-0.7-1.6-1.8-2.7-3.2-3.4c-1.4-0.6-2.8-0.6-4.3,0c-1.4,0.7-2.4,1.7-2.8,3.2s-0.3,3,0.5,4.7
		c0.7,1.6,1.8,2.7,3.2,3.4c1.4,0.6,2.8,0.6,4.3,0C1028.1,156.4,1029.1,155.3,1029.5,153.8z"/>
</g>
<g class="st3">
	<path d="M1031.7,133.3c-0.4-0.1-0.8-0.4-1.2-1l-0.4-0.6c-0.4-0.6-0.4-1.1-0.3-1.5c0.2-0.4,0.6-0.8,1.3-1.3c0.7-0.4,1.3-0.6,1.8-0.6
		c0.4,0.1,0.8,0.4,1.2,1l0.4,0.6c0.4,0.6,0.5,1.1,0.3,1.5c-0.2,0.4-0.6,0.8-1.4,1.3C1032.7,133.1,1032.1,133.3,1031.7,133.3z
		 M1043.8,159.9c-0.5-0.1-1-0.4-1.3-1l-0.2-0.3c-0.5-0.8-0.3-1.7,0.6-2.7c0.5-0.6,0.8-1.2,0.6-1.8c-0.1-0.6-0.5-1.3-1-2.2l-8.6-14.1
		c-0.3-0.5-0.4-1.1-0.3-1.7c0.1-0.6,0.5-1,1-1.4c0.5-0.3,1.1-0.4,1.7-0.3c0.6,0.2,1,0.5,1.4,1l9.3,15.2c0.7,1.2,1.1,2.3,1.2,3.5
		c0.1,1.2-0.1,2.2-0.6,3.2c-0.5,1-1.2,1.7-2.2,2.3C1044.9,160,1044.4,160,1043.8,159.9z"/>
</g>
<g class="st3">
	<path d="M1060.8,129.6c-0.1,0.6-0.4,1-0.9,1.4l-9.7,7.3c1.1,1,2.3,1.5,3.7,1.5c1.3,0,2.5-0.4,3.6-1.2c0.8-0.6,1.4-1.1,1.7-1.6
		c0.3-0.5,0.6-0.9,0.7-1.3c0.1-0.4,0.2-0.6,0.3-0.7c0.2-0.4,0.5-0.8,0.8-1c0.4-0.3,0.9-0.4,1.4-0.4s0.9,0.3,1.2,0.7
		c0.4,0.5,0.5,1.2,0.3,2.1c-0.2,0.9-0.7,1.8-1.3,2.8c-0.7,1-1.5,1.9-2.4,2.6c-1.6,1.2-3.3,2-5.1,2.2s-3.4,0-5-0.7
		c-1.6-0.7-2.9-1.8-4.1-3.3c-1.3-1.7-2-3.4-2.3-5.2c-0.2-1.8-0.1-3.5,0.6-5c0.6-1.5,1.6-2.8,2.9-3.8c1.3-1,2.8-1.5,4.5-1.7
		c1.7-0.2,3.3,0.1,4.9,0.8c1.6,0.7,2.9,1.7,3.9,3.1C1060.8,128.5,1060.9,129,1060.8,129.6z M1048,135.2l7.7-5.8l-0.2-0.2
		c-0.7-0.8-1.6-1.2-2.8-1.2c-1.2,0-2.2,0.3-3.1,1C1047.3,130.7,1046.8,132.8,1048,135.2z"/>
</g>
<g class="st3">
	<path d="M1077.8,99.9c1.7,0.4,3.5,1.4,5.4,3.2l6.8,6.5c0.5,0.4,0.7,1,0.7,1.6c0,0.6-0.2,1.1-0.6,1.6c-0.4,0.5-1,0.7-1.6,0.7
		c-0.6,0-1.1-0.2-1.6-0.7l-6.8-6.5c-1-0.9-1.9-1.5-2.8-1.6c-0.9-0.2-1.8,0.2-2.8,1.2c-0.9,1-1.4,2.1-1.3,3.2c0.1,1.1,0.5,2.1,1.4,3
		l6.8,6.5c0.5,0.4,0.7,1,0.7,1.6c0,0.6-0.2,1.1-0.6,1.6c-0.4,0.5-1,0.7-1.6,0.7c-0.6,0-1.1-0.2-1.6-0.7l-6.8-6.5
		c-1-0.9-1.9-1.5-2.8-1.6c-0.9-0.2-1.8,0.2-2.8,1.2c-0.9,1-1.4,2.1-1.3,3.2c0.1,1.1,0.5,2.1,1.4,3l6.8,6.5c0.5,0.4,0.7,1,0.7,1.6
		c0,0.6-0.2,1.1-0.6,1.6c-0.4,0.5-1,0.7-1.6,0.7c-0.6,0-1.1-0.2-1.6-0.7l-11-10.5c-0.5-0.4-0.7-1-0.7-1.6c0-0.6,0.2-1.1,0.6-1.6
		s1-0.7,1.6-0.7c0.6,0,1.1,0.2,1.6,0.7l0.4,0.4c-0.2-1.1-0.1-2.2,0.1-3.4c0.2-1.2,0.8-2.2,1.7-3.1c2.1-2.2,4.5-2.7,7-1.5
		c-0.4-1.1-0.4-2.4-0.3-3.8c0.2-1.4,0.8-2.6,1.8-3.7C1074.4,100.2,1076.1,99.5,1077.8,99.9z"/>
</g>
<g class="st3">
	<path d="M1088.5,99l-11.5-7.4c-0.6-0.4-1-1-1.2-1.7c-0.1-0.7,0-1.3,0.5-1.9c0.4-0.6,1-0.9,1.7-1c0.7-0.1,1.3,0.2,1.9,0.7l10.2,9.1
		c0.7,0.6,0.8,1.3,0.3,1.9C1090,99.4,1089.3,99.5,1088.5,99z M1095.4,104.9c-0.5,0.1-1.1-0.1-1.7-0.5l-0.5-0.4
		c-0.6-0.4-0.9-0.9-1-1.5c-0.1-0.5,0.1-1.1,0.5-1.7l0.3-0.4c0.4-0.6,0.9-0.9,1.5-1c0.5-0.1,1.1,0.1,1.7,0.5l0.5,0.4
		c0.6,0.4,0.9,0.9,1,1.5c0.1,0.5-0.1,1.1-0.5,1.7l-0.3,0.4C1096.4,104.5,1095.9,104.8,1095.4,104.9z"/>
</g>
<path class="st4" d="M430.1,131.1c-1.6,0-2.9-1.3-2.8-2.9c0-0.9,0.4-1.7,1.2-2.3l118-86.5l0.2-0.1l5.6-3.6c1.3-0.9,3.1-0.5,4,0.9
	c0.9,1.3,0.5,3.1-0.9,4l-5.5,3.6l-110.6,81.1l144.8-2.3c1.6-0.1,3,1.1,3.1,2.7c0.1,1.6-1.1,3-2.7,3.1c-0.1,0-0.2,0-0.3,0
	L430.1,131.1L430.1,131.1z"/>
<path class="st4" d="M582.2,129c-4.1-0.1-8.7-4.1-13.6-12s-9.6-18.7-13.4-30.6s-6.3-23.6-6.8-32.8c-0.7-10.9,1.3-17.1,5.9-18.6
	s9.9,2.5,15.6,11.7c4.8,7.8,9.6,18.7,13.4,30.6l0,0c3.8,11.9,6.2,23.6,6.8,32.7c0.7,10.9-1.3,17.1-5.9,18.6
	C583.6,128.9,582.9,129,582.2,129z M556.4,41.2c-0.6,0.6-2,3.9-1.3,13.1c0.7,8.5,3,19.1,6.4,30s7.8,20.9,12.1,28.2
	c4.7,7.9,7.8,9.8,8.7,9.9c0.6-0.6,2-3.9,1.3-13.1c-0.7-8.5-3-19.2-6.4-30l0,0c-3.5-10.9-7.8-20.9-12.1-28.2
	C560.3,43.3,557.2,41.3,556.4,41.2z"/>
<path class="st4" d="M470.3,112.1c-1.8,0-3.3-1.5-3.3-3.4c0-1.2,0.7-2.4,1.9-2.9l82.5-37.6c1.7-0.8,3.6-0.1,4.4,1.6s0.1,3.6-1.6,4.4
	l-82.5,37.6C471.3,112,470.8,112.1,470.3,112.1z"/>
<path class="st4" d="M473.8,122.9c-1.8,0-3.3-1.5-3.3-3.3c0-1.6,1.1-2.9,2.6-3.2L563.5,99c1.8-0.4,3.5,0.8,3.9,2.5
	c0.4,1.8-0.8,3.5-2.5,3.9l0,0l-90.3,17.4C474.3,122.9,474.1,122.9,473.8,122.9z"/>
<path class="st4" d="M588.3,49.6c-0.7,0-1.4-0.3-2-0.8c-1.1-1.1-1.2-2.9-0.1-4.1c0,0,0,0,0,0l20.6-21.2c1.1-1.1,2.9-1.2,4.1-0.1
	s1.2,2.9,0.1,4.1l-20.5,21.2C589.9,49.3,589.1,49.6,588.3,49.6z"/>
<path class="st4" d="M625.8,104.4h-0.2l-20.5-1.5c-1.6-0.1-2.8-1.5-2.7-3.1c0.1-1.6,1.5-2.8,3.1-2.7l20.5,1.5c1.6,0.1,2.8,1.4,2.7,3
	C628.8,103.3,627.4,104.5,625.8,104.4L625.8,104.4z"/>
<path class="st4" d="M600.6,75.6c-1.6,0-2.9-1.4-2.8-2.9c0-1.2,0.8-2.2,1.9-2.6l27.5-9.6c1.5-0.5,3.1,0.3,3.7,1.8
	c0.5,1.5-0.3,3.1-1.8,3.7l0,0l-27.5,9.6C601.3,75.6,601,75.6,600.6,75.6z"/>
<path class="st4" d="M488.1,169.4c-1.4,0-2.6-0.9-3.1-2.2L463.8,105c-0.6-1.7,0.3-3.6,2.1-4.2s3.6,0.3,4.2,2.1l0,0l20.4,59.9
	l18.1-0.2l-10.4-33.4c-0.5-1.8,0.5-3.6,2.2-4.1c1.8-0.5,3.6,0.5,4.1,2.2l11.7,37.6c0.5,1.7-0.4,3.6-2.2,4.1c-0.3,0.1-0.6,0.1-1,0.1
	L488.1,169.4L488.1,169.4z"/>
<polygon class="st4" points="448.2,113.7 452,129.2 428.1,129.3 "/>
<path class="st2" d="M336.6,172.9c-34.5,0-76.6-8.2-120.9-35.8c-38.8-24.2-74.8-32.9-106.9-25.8c-30.9,6.8-52.8,27-65.7,42.7
	L7.3,108.3C24.7,87,54.6,59.6,98.1,50c44-9.7,91,1.3,140.4,31.6c78.4,48.2,142.9,22.2,142.9,22.2l16.3,61.9
	C395.4,166.9,385.4,172.9,336.6,172.9z"/>
<g class="st3">
	<path d="M49.9,97.6c1.6-0.3,3.2-0.1,4.9,0.5c1.6,0.6,3.1,1.7,4.4,3.1c1.3,1.5,2.2,3.1,2.7,4.7c0.5,1.7,0.5,3.3,0,4.9
		c-0.4,1.6-1.3,2.9-2.5,4c-0.9,0.8-1.9,1.4-3,1.7c-1.1,0.3-2.1,0.5-3.1,0.4l4.8,5.4c0.4,0.5,0.6,1,0.6,1.6c0,0.6-0.3,1.1-0.8,1.5
		c-0.5,0.4-1,0.6-1.6,0.6c-0.6,0-1.1-0.3-1.6-0.8l-15.1-16.9c-0.4-0.5-0.6-1-0.6-1.6c0-0.6,0.3-1.1,0.8-1.5c0.5-0.4,1-0.6,1.6-0.6
		c0.6,0,1.1,0.3,1.5,0.8l0.1,0.1c-0.1-0.9,0.1-2,0.6-3.1c0.4-1.1,1.1-2.1,1.9-2.8C46.8,98.5,48.3,97.8,49.9,97.6z M57.8,108.4
		c0-1.6-0.6-3-1.8-4.3c-1.2-1.3-2.5-2.1-4.1-2.3c-1.5-0.2-2.9,0.2-4.1,1.3c-1.2,1.1-1.8,2.4-1.8,3.9c0,1.5,0.6,3,1.8,4.3
		c1.2,1.3,2.5,2.1,4.1,2.3c1.5,0.2,2.9-0.2,4.1-1.3C57.3,111.3,57.9,110,57.8,108.4z"/>
</g>
<g class="st3">
	<path d="M80.8,94.8c0,1.8-0.5,3.4-1.4,4.9c-0.9,1.5-2.2,2.7-3.8,3.6c-1.6,0.9-3.3,1.4-5.1,1.4c-1.7,0-3.4-0.5-4.9-1.4
		c-1.5-0.9-2.8-2.2-3.8-3.9c-1-1.7-1.5-3.5-1.5-5.2c0-1.8,0.4-3.4,1.3-4.9c0.9-1.5,2.1-2.7,3.8-3.6c1.6-0.9,3.3-1.4,5-1.4
		c1.8,0,3.4,0.5,4.9,1.4c1.5,0.9,2.8,2.2,3.8,3.9C80.4,91.3,80.8,93,80.8,94.8z M73.3,89.3c-0.9-0.6-1.9-0.9-2.8-0.9
		c-1,0-1.9,0.2-2.8,0.7c-0.9,0.5-1.6,1.2-2.1,2.1c-0.5,0.9-0.7,1.8-0.7,2.9s0.3,2.1,0.9,3.2c0.6,1,1.3,1.9,2.2,2.4
		c0.9,0.6,1.8,0.9,2.8,0.9c1,0,1.9-0.2,2.8-0.7c0.9-0.5,1.6-1.2,2.1-2.1c0.5-0.9,0.7-1.8,0.7-2.9c0-1.1-0.3-2.1-0.9-3.2
		C74.9,90.7,74.2,89.9,73.3,89.3z"/>
</g>
<g class="st3">
	<path d="M95.1,66.7c0.5,0.3,0.9,0.7,1.1,1.3l6.8,21.6c0.2,0.6,0.2,1.2-0.1,1.7c-0.3,0.5-0.7,0.9-1.3,1.1c-0.6,0.2-1.2,0.2-1.7-0.1
		c-0.5-0.3-0.9-0.7-1.1-1.3c-0.4,0.9-1,1.7-1.8,2.5c-0.8,0.8-1.8,1.4-2.9,1.7c-1.6,0.5-3.2,0.6-4.8,0.1c-1.6-0.4-3-1.2-4.2-2.5
		c-1.2-1.2-2.1-2.8-2.7-4.6c-0.6-1.9-0.7-3.7-0.5-5.4c0.3-1.7,0.9-3.2,2-4.4s2.3-2.1,3.9-2.6c1.1-0.4,2.2-0.5,3.3-0.4
		c1.1,0.1,2.1,0.4,3,0.8L92,69.4c-0.2-0.6-0.2-1.2,0.1-1.7c0.3-0.5,0.7-0.9,1.3-1.1C94,66.4,94.6,66.4,95.1,66.7z M96.6,88.4
		c0.6-1.4,0.6-3,0.1-4.6c-0.5-1.7-1.4-2.9-2.8-3.7c-1.3-0.8-2.7-1-4.2-0.5c-1.5,0.5-2.5,1.4-3.1,2.8c-0.6,1.4-0.6,3-0.1,4.6
		c0.5,1.7,1.4,2.9,2.7,3.7c1.3,0.8,2.7,1,4.2,0.5C95,90.7,96,89.8,96.6,88.4z"/>
</g>
<g class="st3">
	<path d="M123.2,80.5c-0.4,0.4-0.9,0.7-1.5,0.7l-12,1.3c0.5,1.4,1.2,2.4,2.4,3.1c1.1,0.7,2.4,1,3.7,0.8c1-0.1,1.8-0.3,2.3-0.5
		c0.5-0.2,1-0.5,1.3-0.7c0.3-0.2,0.5-0.4,0.6-0.5c0.4-0.3,0.8-0.4,1.2-0.5c0.5-0.1,1,0.1,1.4,0.4c0.4,0.3,0.6,0.7,0.7,1.2
		c0.1,0.7-0.2,1.3-0.8,1.9c-0.6,0.6-1.5,1.2-2.6,1.7c-1.1,0.5-2.2,0.8-3.4,1c-2,0.2-3.9,0-5.5-0.7c-1.6-0.7-2.9-1.7-3.9-3.1
		c-1-1.4-1.6-3-1.8-4.9c-0.2-2.1,0-4,0.7-5.6c0.7-1.7,1.7-3,3.1-4c1.3-1,2.8-1.6,4.4-1.8c1.6-0.2,3.2,0.1,4.7,0.8
		c1.5,0.7,2.8,1.8,3.8,3.2c1,1.4,1.6,2.9,1.8,4.7C123.8,79.6,123.6,80.1,123.2,80.5z M109.3,78.9l9.5-1.1l0-0.3
		c-0.2-1-0.8-1.8-1.8-2.5c-1-0.6-2-0.9-3.2-0.8C111.1,74.7,109.5,76.2,109.3,78.9z"/>
</g>
<g class="st3">
	<path d="M125.2,96.1c-0.4-0.4-0.6-0.9-0.6-1.5l0-0.4c0-1,0.7-1.6,1.9-2c0.8-0.2,1.3-0.6,1.5-1.2c0.2-0.6,0.3-1.4,0.4-2.4l0.3-16.5
		c0-0.6,0.2-1.2,0.7-1.6c0.4-0.4,1-0.6,1.6-0.6c0.6,0,1.2,0.2,1.6,0.7c0.4,0.4,0.6,1,0.6,1.6L132.8,90c0,1.4-0.3,2.6-0.9,3.6
		c-0.5,1-1.3,1.8-2.2,2.4c-0.9,0.5-2,0.8-3.1,0.8C126.1,96.7,125.6,96.5,125.2,96.1z M129.2,67.1c-0.3-0.3-0.5-0.8-0.5-1.4l0-0.7
		c0-0.7,0.2-1.2,0.6-1.4c0.4-0.3,1-0.4,1.8-0.4c0.9,0,1.5,0.2,1.8,0.4c0.3,0.3,0.5,0.8,0.5,1.4l0,0.7c0,0.7-0.2,1.2-0.6,1.4
		c-0.4,0.2-1,0.4-1.8,0.4C130.1,67.5,129.5,67.4,129.2,67.1z"/>
</g>
<g class="st3">
	<path d="M167.5,76.3c0.7,1.6,0.8,3.7,0.3,6.3l-1.6,9.3c-0.1,0.6-0.4,1.1-0.9,1.5c-0.5,0.4-1,0.5-1.7,0.4c-0.6-0.1-1.1-0.4-1.4-0.9
		c-0.3-0.5-0.5-1.1-0.3-1.7l1.6-9.3c0.2-1.3,0.1-2.4-0.2-3.3c-0.4-0.9-1.2-1.4-2.5-1.6c-1.4-0.2-2.5,0-3.4,0.7
		c-0.9,0.7-1.5,1.6-1.7,2.9l-1.6,9.3c-0.1,0.6-0.4,1.1-0.9,1.5c-0.5,0.4-1,0.5-1.7,0.4c-0.6-0.1-1.1-0.4-1.4-0.9
		c-0.3-0.5-0.5-1.1-0.3-1.7l1.6-9.3c0.2-1.3,0.1-2.4-0.2-3.3c-0.4-0.9-1.2-1.4-2.5-1.6c-1.4-0.2-2.5,0-3.4,0.7
		c-0.9,0.7-1.5,1.6-1.7,2.9l-1.6,9.3c-0.1,0.6-0.4,1.1-0.9,1.5c-0.5,0.4-1,0.5-1.7,0.4c-0.6-0.1-1.1-0.4-1.5-0.9
		c-0.3-0.5-0.5-1.1-0.3-1.7l2.6-15c0.1-0.6,0.4-1.1,0.9-1.5c0.5-0.4,1-0.5,1.7-0.4s1.1,0.4,1.5,0.9c0.3,0.5,0.5,1.1,0.3,1.7
		l-0.1,0.6c0.8-0.8,1.8-1.4,2.9-1.8c1.1-0.4,2.3-0.6,3.5-0.3c3,0.5,4.8,2.2,5.1,5c0.7-0.9,1.7-1.7,3-2.3c1.3-0.6,2.6-0.8,4-0.6
		C165.3,73.7,166.8,74.7,167.5,76.3z"/>
</g>
<g class="st3">
	<path d="M173.1,96.2c-0.5,0.3-1.1,0.3-1.7,0.2c-0.6-0.2-1.1-0.5-1.3-1.1c-0.3-0.5-0.3-1.1-0.1-1.7l4.4-14.5
		c0.2-0.6,0.5-1.1,1.1-1.4c0.5-0.3,1.1-0.3,1.7-0.2c0.6,0.2,1.1,0.5,1.3,1.1c0.3,0.5,0.3,1.1,0.1,1.7l-4.4,14.5
		C174,95.5,173.7,96,173.1,96.2z M176.2,74.4c-0.3-0.4-0.3-0.9-0.1-1.5l0.2-0.7c0.2-0.7,0.5-1.1,0.9-1.2c0.4-0.2,1-0.1,1.8,0.1
		c0.8,0.2,1.4,0.6,1.6,0.9c0.3,0.4,0.3,0.9,0.1,1.5l-0.2,0.7c-0.2,0.7-0.5,1.1-0.9,1.2c-0.4,0.1-1,0.1-1.9-0.2
		C177,75,176.5,74.7,176.2,74.4z"/>
</g>
<g class="st3">
	<path d="M173,103.7c-0.2-0.5-0.3-1-0.1-1.6l0.1-0.4c0.3-0.9,1.1-1.4,2.4-1.3c0.8,0,1.4-0.2,1.8-0.7c0.4-0.5,0.8-1.2,1.1-2.2
		l5.5-15.5c0.2-0.6,0.6-1,1.1-1.3c0.5-0.3,1.1-0.3,1.7-0.1c0.6,0.2,1,0.6,1.3,1.1s0.3,1.1,0.1,1.7l-5.9,16.7
		c-0.5,1.3-1.1,2.3-1.9,3.1c-0.8,0.8-1.8,1.3-2.8,1.5c-1.1,0.2-2.1,0.2-3.2-0.2C173.6,104.6,173.2,104.2,173,103.7z M185.9,77.5
		c-0.2-0.4-0.2-0.9,0-1.5l0.2-0.7c0.2-0.6,0.6-1,1-1.2c0.4-0.1,1-0.1,1.8,0.2c0.8,0.3,1.3,0.6,1.6,1c0.2,0.4,0.2,0.9,0,1.5l-0.2,0.7
		c-0.2,0.7-0.6,1.1-1,1.2c-0.4,0.1-1,0-1.8-0.2C186.6,78.2,186.1,77.9,185.9,77.5z"/>
</g>
<g class="st3">
	<path d="M226.1,99c0.2,0.6,0.1,1.1-0.2,1.7c-0.1,0.2-0.3,0.4-0.5,0.7l-11.8,11.1c-0.3,0.3-0.7,0.5-1.2,0.6c-0.5,0.1-0.9,0-1.3-0.2
		l-0.2-0.2c-0.7-0.4-1.1-1.1-1.1-2.1l1.2-9.5l-6.7,6.8c-0.8,0.6-1.5,0.7-2.3,0.4l-0.3-0.1c-0.4-0.2-0.7-0.5-0.9-0.9
		c-0.2-0.4-0.3-0.8-0.2-1.3l1.7-16.1c0-0.3,0.1-0.6,0.2-0.8c0.3-0.5,0.7-0.9,1.3-1.2c0.6-0.2,1.1-0.2,1.7,0.1c0.4,0.2,0.8,0.5,1,0.9
		c0.2,0.4,0.3,0.8,0.2,1.3l-1.2,11.4l6.1-5.8c0.8-0.6,1.6-0.7,2.4-0.3c0.5,0.2,0.8,0.5,0.9,0.8c0.2,0.3,0.2,0.7,0.2,1.2l-0.9,8.1
		l8.2-7.7c0.3-0.4,0.7-0.5,1.2-0.6c0.4,0,0.9,0.1,1.4,0.3C225.6,98,225.9,98.4,226.1,99z"/>
</g>
<g class="st3">
	<path d="M244.2,109.2c0.2,0.6,0.1,1.1-0.2,1.7l-7.3,13.8c-1.5,2.8-3.3,4.5-5.5,4.9c-2.2,0.5-4.6,0.1-7.1-1.3
		c-0.7-0.4-1.5-0.9-2.2-1.4c-0.7-0.5-1.2-1-1.6-1.5c-0.8-1-1-1.9-0.6-2.7c0.1-0.2,0.2-0.3,0.4-0.5c0.4-0.4,0.8-0.7,1.2-0.7
		c0.4-0.1,0.9,0,1.2,0.2c0.2,0.1,0.4,0.3,0.6,0.4c0.1,0.1,0.3,0.4,0.6,0.7c0.3,0.4,0.6,0.7,1,1c0.4,0.3,0.8,0.6,1.2,0.8
		c1.5,0.8,2.8,1.1,3.9,0.8c1.1-0.3,2-1.2,2.9-2.8l0.2-0.3c-1.9,0.8-4,0.6-6.4-0.7c-1.1-0.6-2-1.4-2.6-2.4c-0.6-1-0.9-2.1-0.8-3.3
		c0-1.2,0.4-2.4,1-3.6l5-9.5c0.3-0.6,0.7-0.9,1.3-1.1c0.6-0.2,1.1-0.1,1.7,0.2c0.6,0.3,0.9,0.7,1.1,1.3c0.2,0.6,0.1,1.1-0.2,1.7
		l-4.4,8.3c-0.7,1.4-0.9,2.5-0.7,3.4c0.3,0.9,1,1.7,2.1,2.3c1.1,0.6,2.2,0.7,3.1,0.4c1-0.3,1.8-1.1,2.4-2.4l4.4-8.3
		c0.3-0.6,0.7-0.9,1.3-1.1c0.6-0.2,1.1-0.1,1.7,0.2C243.7,108.2,244,108.6,244.2,109.2z"/>
</g>
<g class="st3">
	<path d="M255.3,131.3c0.2,0.5,0.2,1-0.1,1.6c-0.2,0.5-0.6,0.9-1.1,1.1s-1,0.2-1.6-0.1l-10.8-4.8c-0.5-0.2-0.9-0.6-1-1.1
		c-0.2-0.5-0.2-1,0-1.4c0.2-0.4,0.4-0.7,0.6-0.9c0.2-0.2,0.5-0.4,0.9-0.7l12.6-6.8l-6.5-2.9c-0.5-0.2-0.9-0.6-1.1-1.1
		c-0.2-0.5-0.2-1,0.1-1.6c0.2-0.5,0.6-0.9,1.1-1.1c0.5-0.2,1-0.2,1.6,0.1l10.3,4.6c0.5,0.2,0.8,0.6,1,1.1c0.2,0.5,0.2,1-0.1,1.5
		c-0.1,0.3-0.3,0.6-0.5,0.8c-0.2,0.2-0.5,0.4-0.8,0.6l-12.7,6.9l7,3.1C254.7,130.4,255.1,130.8,255.3,131.3z"/>
</g>
<g class="st3">
	<path d="M287.6,126.6c0.2,0.5,0.2,1.1,0,1.7c-0.1,0.2-0.2,0.5-0.4,0.7l-10.3,12.4c-0.3,0.4-0.6,0.6-1.1,0.7c-0.4,0.1-0.9,0.1-1.3,0
		l-0.3-0.1c-0.8-0.3-1.2-1-1.3-1.9l0-9.5l-5.8,7.5c-0.7,0.7-1.4,0.9-2.2,0.7l-0.3-0.1c-0.4-0.1-0.8-0.4-1-0.8
		c-0.3-0.4-0.4-0.8-0.4-1.2l-0.3-16.1c0-0.3,0-0.6,0.1-0.8c0.2-0.6,0.6-1,1.1-1.3c0.5-0.3,1.1-0.3,1.7-0.1c0.5,0.2,0.8,0.4,1.1,0.7
		c0.3,0.3,0.4,0.7,0.4,1.2l0.2,11.4l5.3-6.4c0.7-0.7,1.5-0.9,2.4-0.6c0.5,0.2,0.8,0.4,1,0.7c0.2,0.3,0.3,0.7,0.3,1.2l0.1,8.2
		l7.2-8.7c0.3-0.4,0.6-0.6,1.1-0.7c0.4-0.1,0.9-0.1,1.4,0.1C286.9,125.7,287.3,126.1,287.6,126.6z"/>
</g>
<g class="st3">
	<path d="M308.6,131.2c0.3,0.5,0.4,1.1,0.2,1.7l-3.6,15.1c-0.1,0.6-0.5,1.1-1,1.4c-0.5,0.3-1.1,0.4-1.7,0.3c-0.6-0.1-1.1-0.5-1.4-1
		c-0.3-0.5-0.4-1.1-0.3-1.7c-0.8,0.5-1.7,0.9-2.8,1.2c-1.1,0.2-2.3,0.2-3.4,0c-1.6-0.4-3-1.2-4.2-2.3c-1.1-1.2-1.9-2.6-2.3-4.3
		c-0.4-1.7-0.4-3.5,0.1-5.4s1.2-3.5,2.4-4.9c1.1-1.3,2.5-2.3,4-2.8c1.5-0.5,3.1-0.6,4.7-0.2c1.1,0.3,2.2,0.7,3.1,1.4
		c0.9,0.7,1.6,1.4,2.2,2.2l0,0c0.1-0.6,0.5-1.1,1-1.4c0.5-0.3,1.1-0.4,1.7-0.3C307.8,130.3,308.3,130.7,308.6,131.2z M300.4,143.6
		c1.2-0.9,2.1-2.2,2.5-3.9c0.4-1.7,0.3-3.3-0.4-4.6s-1.8-2.3-3.4-2.6c-1.5-0.4-2.9-0.1-4.2,0.8c-1.3,0.9-2.1,2.2-2.5,3.9
		c-0.4,1.7-0.3,3.3,0.4,4.6c0.7,1.4,1.8,2.2,3.4,2.6C297.7,144.8,299.1,144.5,300.4,143.6z"/>
</g>
<g class="st3">
	<path d="M328.9,135.9c0.7,1.6,0.9,3.7,0.6,6.3l-1.3,9.3c-0.1,0.6-0.4,1.1-0.8,1.5c-0.5,0.4-1,0.5-1.7,0.4c-0.6-0.1-1.1-0.4-1.5-0.9
		c-0.4-0.5-0.5-1-0.4-1.7l1.3-9.3c0.2-1.3,0.1-2.4-0.4-3.3c-0.5-0.8-1.4-1.4-2.7-1.6c-1.4-0.2-2.6,0.1-3.5,0.8
		c-0.9,0.7-1.5,1.7-1.6,2.9l-1.3,9.3c-0.1,0.6-0.4,1.1-0.8,1.5s-1,0.5-1.7,0.4c-0.6-0.1-1.1-0.4-1.5-0.9c-0.4-0.5-0.5-1-0.4-1.7
		l2.1-15c0.1-0.6,0.4-1.1,0.8-1.5c0.5-0.4,1-0.5,1.7-0.4c0.6,0.1,1.1,0.4,1.5,0.9c0.4,0.5,0.5,1,0.4,1.7l-0.1,0.6
		c0.8-0.8,1.7-1.4,2.9-1.9c1.1-0.5,2.3-0.6,3.6-0.5C326.6,133.4,328.2,134.3,328.9,135.9z"/>
</g>
<g class="st3">
	<path d="M337.4,153.7c-0.4,0.4-1,0.6-1.6,0.5c-0.6,0-1.2-0.3-1.5-0.7c-0.4-0.5-0.6-1-0.5-1.6l0.9-15.2c0-0.6,0.3-1.2,0.7-1.6
		c0.4-0.4,1-0.6,1.6-0.5c0.6,0,1.2,0.3,1.5,0.7c0.4,0.5,0.6,1,0.5,1.6l-0.9,15.2C338.1,152.7,337.8,153.2,337.4,153.7z M335.3,131.6
		c-0.3-0.3-0.5-0.8-0.4-1.5l0-0.7c0-0.7,0.3-1.2,0.6-1.4c0.4-0.2,1-0.3,1.8-0.3c0.9,0.1,1.5,0.2,1.8,0.5c0.3,0.3,0.5,0.8,0.4,1.5
		l0,0.7c0,0.7-0.2,1.2-0.6,1.4c-0.4,0.2-1,0.3-1.8,0.3C336.2,132.1,335.6,131.9,335.3,131.6z"/>
</g>
<g class="st3">
	<path d="M360.6,145.6c-0.4,0.4-0.9,0.6-1.5,0.6l-12.1,0.2c0.3,1.4,1,2.6,2.1,3.4c1.1,0.8,2.3,1.2,3.6,1.2c1,0,1.8-0.1,2.3-0.3
		c0.6-0.2,1-0.4,1.3-0.6c0.3-0.2,0.6-0.4,0.7-0.4c0.4-0.2,0.9-0.3,1.2-0.4c0.5,0,1,0.2,1.3,0.5s0.6,0.8,0.6,1.3c0,0.7-0.3,1.3-1,1.8
		c-0.7,0.6-1.6,1.1-2.7,1.5c-1.1,0.4-2.3,0.6-3.5,0.6c-2.1,0-3.9-0.4-5.4-1.2c-1.5-0.8-2.7-2-3.6-3.5c-0.9-1.5-1.3-3.2-1.3-5.1
		c0-2.1,0.4-4,1.2-5.6c0.9-1.6,2-2.8,3.4-3.7c1.4-0.9,3-1.3,4.6-1.3c1.6,0,3.2,0.4,4.6,1.2c1.4,0.9,2.6,2,3.5,3.5
		c0.9,1.5,1.3,3.1,1.4,4.8C361.2,144.8,361,145.2,360.6,145.6z M346.9,142.7l9.6-0.2l0-0.3c-0.1-1-0.6-1.9-1.6-2.6
		c-0.9-0.7-2-1.1-3.1-1.1C349,138.7,347.3,140,346.9,142.7z"/>
</g>
<g class="st3">
	<path d="M366.6,144.3l-2.5-13.3c-0.1-0.7,0-1.4,0.4-2c0.4-0.6,1-0.9,1.7-1c0.7-0.1,1.4,0.1,1.9,0.6s0.8,1.1,0.8,1.8l0.5,13.5
		c0,0.9-0.4,1.4-1.2,1.5C367.3,145.6,366.8,145.2,366.6,144.3z M367.1,153.2c-0.4-0.3-0.7-0.9-0.7-1.6l-0.1-0.6
		c-0.1-0.7,0-1.3,0.4-1.7c0.3-0.4,0.9-0.7,1.6-0.7l0.5-0.1c0.7-0.1,1.3,0.1,1.7,0.4c0.4,0.3,0.7,0.9,0.7,1.6l0.1,0.6
		c0.1,0.7-0.1,1.3-0.4,1.7c-0.3,0.4-0.9,0.7-1.6,0.7l-0.5,0.1C368.1,153.7,367.5,153.5,367.1,153.2z"/>
</g>
</svg>
