<svg id="Warstwa_1" data-name="Warstwa 1" xmlns="http://www.w3.org/2000/svg" viewBox="0 0 83.81 85.04"><defs><style>.cls-1{fill:#e3b6e7;}.cls-2{fill:#fff;}</style></defs><rect class="cls-1" width="83.81" height="85.04" rx="5.24"/><path class="cls-2" d="M10.86,32.09H28.73v5H16.47v4.61H27.62v5H16.47v5.43H28.73v5H10.86Z"/><path class="cls-2" d="M32.66,32.09H44a7.87,7.87,0,0,1,8.25,8.26c0,4.79-3.21,8.4-8.25,8.4H38.27v8.36H32.66ZM42.92,43.74c2.39,0,3.65-1.11,3.65-3.39s-1.36-3.29-3.65-3.29H38.27v6.68Z"/><path class="cls-2" d="M54.07,48.53h5.68c.25,2.72,2.15,3.93,4.86,3.93,3.43,0,4.68-1.07,4.68-2.57s-.82-2.18-3-2.65l-3.65-.78c-4.32-.93-7.72-2.72-7.72-7.51,0-4.21,3.86-7.18,9.76-7.18,5.72,0,9.93,3.36,10,8.15H68.94c-.15-1.65-1.4-3.15-4.36-3.15S60.65,37.92,60.65,39s.5,1.83,2.82,2.33l3.39.71c4.65,1,8.19,2.86,8.19,7.76,0,4.46-2.93,7.68-10.44,7.68C57.93,57.43,54.39,53.93,54.07,48.53Z"/></svg>