<svg id="Warstwa_1" data-name="Warstwa 1" xmlns="http://www.w3.org/2000/svg" viewBox="0 0 387.41 254.39"><defs><style>.cls-1{fill:#e3b6e7;}.cls-2{fill:#fff;}.cls-3{fill:#231f20;}</style></defs><rect class="cls-1" x="6.23" y="73.26" width="230.55" height="69" transform="translate(-26.53 40.97) rotate(-17.29)"/><rect class="cls-1" x="31.39" y="31.96" width="219.28" height="69" transform="translate(-13.38 44.91) rotate(-17.29)"/><rect class="cls-2" x="61.66" y="66.93" width="284.48" height="48.38" transform="translate(6 -12.39) rotate(3.53)"/><path class="cls-3" d="M346.72,126.67,57.79,108.84l3.29-53.28L350,73.4ZM63.09,104.16l279,17.21,2.67-43.29L65.76,60.86Z"/><line class="cls-2" x1="361.03" y1="60.74" x2="377.61" y2="46.68"/><path class="cls-3" d="M361,63.24a2.48,2.48,0,0,1-1.9-.88,2.5,2.5,0,0,1,.28-3.53L376,44.77a2.5,2.5,0,1,1,3.24,3.81L362.65,62.65A2.55,2.55,0,0,1,361,63.24Z"/><line class="cls-2" x1="368.19" y1="80.69" x2="383.17" y2="77.04"/><path class="cls-3" d="M368.18,83.19a2.5,2.5,0,0,1-.59-4.93l15-3.65a2.5,2.5,0,0,1,1.18,4.86l-15,3.65A3.07,3.07,0,0,1,368.18,83.19Z"/><line class="cls-2" x1="348.75" y1="47.14" x2="352.54" y2="37.79"/><path class="cls-3" d="M348.75,49.64a2.57,2.57,0,0,1-.94-.18,2.5,2.5,0,0,1-1.38-3.26l3.79-9.35a2.5,2.5,0,0,1,4.64,1.87l-3.8,9.36A2.49,2.49,0,0,1,348.75,49.64Z"/><path d="M93.86,76.85a8.38,8.38,0,0,1,2.76,3.48,10.22,10.22,0,0,1,.79,4.84A10.5,10.5,0,0,1,96,89.9,8.11,8.11,0,0,1,92.91,93a7.41,7.41,0,0,1-4.16.94,7.31,7.31,0,0,1-3-.84,7.94,7.94,0,0,1-2.26-1.74L83.1,98a2,2,0,0,1-.66,1.42,2.09,2.09,0,0,1-2.88-.17,2,2,0,0,1-.47-1.5l1.26-20.49A2,2,0,0,1,81,75.79a1.92,1.92,0,0,1,1.47-.5,2,2,0,0,1,1.41.68,2,2,0,0,1,.47,1.49v.13A6.89,6.89,0,0,1,86.7,76a6.39,6.39,0,0,1,3.06-.56A7.58,7.58,0,0,1,93.86,76.85ZM92,88.86a6.56,6.56,0,0,0,.51-8A4.42,4.42,0,0,0,89,79.05a4.47,4.47,0,0,0-3.64,1.37,5.91,5.91,0,0,0-1.62,3.91,6,6,0,0,0,1.12,4.1,4.48,4.48,0,0,0,3.45,1.82A4.4,4.4,0,0,0,92,88.86Z"/><path d="M116.43,91.2a8.5,8.5,0,0,1-3.49,3.08,9.67,9.67,0,0,1-9.21-.56,8.57,8.57,0,0,1-3.08-3.5,10.2,10.2,0,0,1,.6-9.59,8.68,8.68,0,0,1,3.48-3.11,9,9,0,0,1,4.68-.9,9.12,9.12,0,0,1,4.53,1.47A8.65,8.65,0,0,1,117,81.6a10.18,10.18,0,0,1-.59,9.6Zm-3-7.94a5,5,0,0,0-1.72-2.1,4.73,4.73,0,0,0-2.51-.86,4.79,4.79,0,0,0-2.6.54,5.07,5.07,0,0,0-2,1.88,6.16,6.16,0,0,0-.86,2.88,6.07,6.07,0,0,0,.5,3A5.11,5.11,0,0,0,106,90.63a5,5,0,0,0,5.11.32,5.08,5.08,0,0,0,2-1.86,6.59,6.59,0,0,0,.36-5.83Z"/><path d="M135.21,79.4A8.38,8.38,0,0,1,138,82.88a10.24,10.24,0,0,1,.79,4.84,10.58,10.58,0,0,1-1.37,4.74,8.15,8.15,0,0,1-3.13,3.12,7.41,7.41,0,0,1-4.16.94,7.31,7.31,0,0,1-3-.84A8.1,8.1,0,0,1,124.85,94v.2a2,2,0,0,1-.66,1.42,2.09,2.09,0,0,1-2.87-.16,2,2,0,0,1-.48-1.51l1.29-21a2,2,0,0,1,.66-1.42,2.07,2.07,0,0,1,2.88.17,2.08,2.08,0,0,1,.48,1.49l-.44,7a7.17,7.17,0,0,1,2.35-1.62,6.39,6.39,0,0,1,3.06-.56A7.58,7.58,0,0,1,135.21,79.4Zm-1.91,12a6,6,0,0,0,1.62-3.92,6,6,0,0,0-1.11-4.08,4.73,4.73,0,0,0-7.07-.44,5.91,5.91,0,0,0-1.62,3.91,6,6,0,0,0,1.12,4.1,4.48,4.48,0,0,0,3.45,1.82A4.4,4.4,0,0,0,133.3,91.41Z"/><path d="M144.79,96.5a2.06,2.06,0,0,1-2.87-.17,2,2,0,0,1-.48-1.49L142.29,81a2,2,0,0,1,.66-1.42,2.08,2.08,0,0,1,2.88.18,2,2,0,0,1,.47,1.49l-.85,13.8A2,2,0,0,1,144.79,96.5Zm-1.85-20a1.58,1.58,0,0,1-.38-1.33l0-.63a1.54,1.54,0,0,1,.59-1.28,3.75,3.75,0,0,1,3.24.2,1.61,1.61,0,0,1,.39,1.34l0,.63a1.52,1.52,0,0,1-.57,1.29,2.84,2.84,0,0,1-1.67.25A2.67,2.67,0,0,1,142.94,76.47Z"/><path d="M165.34,90.27a2.12,2.12,0,0,1-1.43.42l-11-.68a5,5,0,0,0,1.65,3.2,5.1,5.1,0,0,0,3.17,1.32,6.9,6.9,0,0,0,2.15-.12,5.27,5.27,0,0,0,1.26-.46l.64-.34a2.4,2.4,0,0,1,1.16-.23,1.71,1.71,0,0,1,1.6,1.77,2.11,2.11,0,0,1-1,1.58,7.89,7.89,0,0,1-2.59,1.15,9.77,9.77,0,0,1-3.21.34,10,10,0,0,1-4.82-1.47,8.15,8.15,0,0,1-3-3.43,9.39,9.39,0,0,1-.85-4.7,10.21,10.21,0,0,1,1.52-5,8.51,8.51,0,0,1,3.38-3.13,8.11,8.11,0,0,1,4.28-.89,7.78,7.78,0,0,1,4.09,1.46,9,9,0,0,1,2.92,3.43,8.68,8.68,0,0,1,.9,4.49A1.68,1.68,0,0,1,165.34,90.27Zm-12.22-3.61,8.76.54V87a3.47,3.47,0,0,0-1.22-2.49,4.37,4.37,0,0,0-2.75-1.18Q154.05,83.06,153.12,86.66Z"/><path d="M180.9,81.6a1.72,1.72,0,0,1,.6,1.38,2,2,0,0,1-.63,1.52,1.76,1.76,0,0,1-1.31.44,3.42,3.42,0,0,1-1.12-.3l-.44-.16a2.56,2.56,0,0,0-.74-.15,3,3,0,0,0-1.71.43,3.88,3.88,0,0,0-1.42,1.54,6,6,0,0,0-.68,2.56L173,96.78a2,2,0,0,1-.66,1.42,2,2,0,0,1-2.87-.18,2,2,0,0,1-.48-1.49l.85-13.8a2,2,0,0,1,.66-1.42,2.06,2.06,0,0,1,2.88.18,2.05,2.05,0,0,1,.48,1.49l0,.43a5.11,5.11,0,0,1,2.33-2,6.77,6.77,0,0,1,3.12-.53A2.57,2.57,0,0,1,180.9,81.6Z"/><path d="M196.26,97.1a1.74,1.74,0,0,1,.46,1.35,1.77,1.77,0,0,1-.62,1.27,1.84,1.84,0,0,1-1.37.45L184,99.51a1.82,1.82,0,0,1-1.7-1.85,3,3,0,0,1,.19-1,3.61,3.61,0,0,1,.56-.85l8.59-9.81-6.49-.4a1.82,1.82,0,0,1-1.3-.61,1.86,1.86,0,0,1-.45-1.37,1.75,1.75,0,0,1,.61-1.26,1.84,1.84,0,0,1,1.37-.43l10.3.63a1.69,1.69,0,0,1,1.22.6,1.76,1.76,0,0,1,.44,1.32,2.79,2.79,0,0,1-.16.84,2.47,2.47,0,0,1-.51.79L188,96.06l7,.43A1.86,1.86,0,0,1,196.26,97.1Z"/><path d="M207.77,97.18a1.73,1.73,0,0,1,1-1.41,1.77,1.77,0,0,1,1-.24,1.9,1.9,0,0,1,1.29.71,7,7,0,0,0,2,1.67,6.17,6.17,0,0,0,2.59.66c1.74,0,2.65-.56,2.73-1.81a1.59,1.59,0,0,0-.79-1.52,13,13,0,0,0-2.7-1.18,22.61,22.61,0,0,1-3.09-1.26,5.61,5.61,0,0,1-2-1.75,5,5,0,0,1,.39-5.72,6.14,6.14,0,0,1,2.52-1.69,7.83,7.83,0,0,1,3.2-.45,9.82,9.82,0,0,1,3.37.84,6.06,6.06,0,0,1,2.56,2,1.93,1.93,0,0,1,.36,1.23,1.57,1.57,0,0,1-.72,1.23,1.76,1.76,0,0,1-2.26-.24A4.42,4.42,0,0,0,217.67,87a5.28,5.28,0,0,0-2.13-.56c-1.69-.11-2.57.45-2.65,1.68a1.54,1.54,0,0,0,.4,1.21,3.2,3.2,0,0,0,1.14.78c.47.2,1.13.44,2,.74a21.44,21.44,0,0,1,3,1.23,5.18,5.18,0,0,1,1.94,1.76,4.75,4.75,0,0,1,.65,3,4.54,4.54,0,0,1-1.14,2.8,6.21,6.21,0,0,1-2.61,1.7,8,8,0,0,1-3.16.44,11.27,11.27,0,0,1-4.07-1,6.82,6.82,0,0,1-3-2.56A1.57,1.57,0,0,1,207.77,97.18Z"/><path d="M237.92,99.67a1.87,1.87,0,0,1-.17,2.62,1.79,1.79,0,0,1-1.37.45l-10.76-.66a1.84,1.84,0,0,1-1.7-1.85,3,3,0,0,1,.19-1,3.61,3.61,0,0,1,.56-.85l8.59-9.81-6.48-.4a1.81,1.81,0,0,1-1.31-.61,1.86,1.86,0,0,1-.45-1.37,1.73,1.73,0,0,1,.62-1.26,1.8,1.8,0,0,1,1.36-.43l10.3.63a1.69,1.69,0,0,1,1.22.6A1.76,1.76,0,0,1,239,87.1a3.16,3.16,0,0,1-.15.84,2.53,2.53,0,0,1-.52.79l-8.67,9.9,7,.44A1.84,1.84,0,0,1,237.92,99.67Z"/><path d="M258.16,86.37a2,2,0,0,1,.48,1.51L257.77,102a2,2,0,0,1-.66,1.41,2.05,2.05,0,0,1-2.86-.16,2.08,2.08,0,0,1-.49-1.47,7.25,7.25,0,0,1-5.4,2,7.67,7.67,0,0,1-4.1-1.45,8.35,8.35,0,0,1-2.76-3.47,10.41,10.41,0,0,1-.79-4.85,10.54,10.54,0,0,1,1.37-4.73,8.25,8.25,0,0,1,3.13-3.13,7.41,7.41,0,0,1,4.17-.93,7.68,7.68,0,0,1,3,.77,8,8,0,0,1,2.28,1.63v0a2,2,0,0,1,.66-1.42,1.92,1.92,0,0,1,1.47-.5A2,2,0,0,1,258.16,86.37ZM252.73,98.8a5.89,5.89,0,0,0,1.62-3.91,6,6,0,0,0-1.12-4.09,4.69,4.69,0,0,0-7.06-.44,6,6,0,0,0-1.62,3.93,6.06,6.06,0,0,0,1.11,4.08,4.74,4.74,0,0,0,7.07.43Z"/><path d="M276.48,88.12a8.35,8.35,0,0,1,2.75,3.48,10.22,10.22,0,0,1,.8,4.84,10.5,10.5,0,0,1-1.37,4.73,8.18,8.18,0,0,1-3.13,3.13,7.46,7.46,0,0,1-4.17.94,7.26,7.26,0,0,1-3-.84,7.8,7.8,0,0,1-2.26-1.74v.21a2,2,0,0,1-.66,1.41,1.91,1.91,0,0,1-1.48.5,1.94,1.94,0,0,1-1.4-.66,2,2,0,0,1-.48-1.5l1.3-21a2,2,0,0,1,.66-1.42,1.88,1.88,0,0,1,1.47-.5,1.93,1.93,0,0,1,1.4.67,2,2,0,0,1,.48,1.49l-.43,7a6.89,6.89,0,0,1,2.35-1.62,6.37,6.37,0,0,1,3.05-.56A7.61,7.61,0,0,1,276.48,88.12Zm-1.92,12a6.56,6.56,0,0,0,.51-8,4.4,4.4,0,0,0-3.43-1.81A4.49,4.49,0,0,0,268,91.69a5.86,5.86,0,0,0-1.61,3.91,6,6,0,0,0,1.12,4.1,4.48,4.48,0,0,0,3.44,1.82A4.39,4.39,0,0,0,274.56,100.13Z"/><path d="M286.61,105.26a2,2,0,0,1-1.49.49,1.89,1.89,0,0,1-1.37-.67,2.05,2.05,0,0,1-.48-1.49l1.28-20.66A2,2,0,0,1,286.72,81a1.87,1.87,0,0,1,1.36.67,2,2,0,0,1,.48,1.49l-1.27,20.66A2,2,0,0,1,286.61,105.26Z"/><path d="M307.74,103a8.48,8.48,0,0,1-3.5,3.09,9.63,9.63,0,0,1-9.21-.57A8.59,8.59,0,0,1,292,102a10.18,10.18,0,0,1,.59-9.6,8.66,8.66,0,0,1,3.48-3.1,9.55,9.55,0,0,1,9.21.57,8.48,8.48,0,0,1,3.09,3.51,10.16,10.16,0,0,1-.59,9.59Zm-3-7.94A5.07,5.07,0,0,0,303,93a4.91,4.91,0,0,0-2.52-.86,4.81,4.81,0,0,0-2.6.55,5,5,0,0,0-2,1.87,6.54,6.54,0,0,0-.36,5.84,5,5,0,0,0,1.72,2.08,5,5,0,0,0,5.11.32,5.06,5.06,0,0,0,2-1.86,6.09,6.09,0,0,0,.87-2.87A6.18,6.18,0,0,0,304.72,95.06Z"/><path d="M327.3,92.1a10.22,10.22,0,0,1,1,5.68l-.53,8.55a2,2,0,0,1-.66,1.42,2.06,2.06,0,0,1-2.87-.17,2,2,0,0,1-.48-1.49l.53-8.56a4.85,4.85,0,0,0-.59-2.94,3.09,3.09,0,0,0-2.58-1.22,4,4,0,0,0-3.11.94,3.87,3.87,0,0,0-1.28,2.75l-.52,8.56a2,2,0,0,1-.66,1.42,1.9,1.9,0,0,1-1.48.49,1.93,1.93,0,0,1-1.4-.67,2.05,2.05,0,0,1-.48-1.49l.86-13.8a2,2,0,0,1,.66-1.42,1.92,1.92,0,0,1,1.47-.5,2,2,0,0,1,1.4.67,2.07,2.07,0,0,1,.48,1.49l0,.57a8.25,8.25,0,0,1,2.49-1.93,6.23,6.23,0,0,1,3.25-.67Q326.13,90,327.3,92.1Z"/><path class="cls-3" d="M94.25,249.76a3,3,0,0,1-3-3V201.83a3,3,0,0,1,6,0v44.93A3,3,0,0,1,94.25,249.76Z"/><polygon class="cls-3" points="69.71 226.88 74.11 222.78 94.25 244.46 114.39 222.78 118.78 226.88 94.25 253.26 69.71 226.88"/><path class="cls-3" d="M197.35,249.76a3,3,0,0,1-3-3V201.83a3,3,0,0,1,6,0v44.93A3,3,0,0,1,197.35,249.76Z"/><polygon class="cls-3" points="172.81 226.88 177.2 222.78 197.34 244.46 217.49 222.78 221.88 226.88 197.34 253.26 172.81 226.88"/><path class="cls-3" d="M298.44,249.76a3,3,0,0,1-3-3V201.83a3,3,0,1,1,6,0v44.93A3,3,0,0,1,298.44,249.76Z"/><polygon class="cls-3" points="273.9 226.88 278.3 222.78 298.44 244.46 318.58 222.78 322.98 226.88 298.44 253.26 273.9 226.88"/></svg>