<?xml version="1.0" encoding="utf-8"?>
<!-- Generator: Adobe Illustrator 24.1.0, SVG Export Plug-In . SVG Version: 6.00 Build 0)  -->
<svg version="1.1" id="Warstwa_1" xmlns="http://www.w3.org/2000/svg" xmlns:xlink="http://www.w3.org/1999/xlink" x="0px" y="0px"
	 viewBox="0 0 523.8 404" style="enable-background:new 0 0 523.8 404;" xml:space="preserve">
<style type="text/css">
	.st0{fill:none;stroke:#E3B6E7;stroke-width:69;stroke-miterlimit:10;}
	.st1{fill:#FFFFFF;stroke:#231F20;stroke-width:5;stroke-miterlimit:10;}
	.st2{fill:none;stroke:#231F20;stroke-width:5;stroke-linecap:round;stroke-linejoin:round;}
	.st3{enable-background:new    ;}
	.st4{fill:#113BD4;}
	.st5{fill:#FFFFFF;}
	.st6{fill:#EA3826;}
	.st7{fill:#E3B6E7;}
	.st8{fill:none;stroke:#231F20;stroke-width:6;stroke-linecap:round;stroke-linejoin:round;}
	.st9{fill:#231F20;}
</style>
<line class="st0" x1="13.9" y1="182.5" x2="310.5" y2="90.2"/>
<line class="st0" x1="47.5" y1="124.6" x2="329.6" y2="36.8"/>
<rect x="240.6" y="-77.8" transform="matrix(6.157115e-02 -0.9981 0.9981 6.157115e-02 142.7371 379.5664)" class="st1" width="65.2" height="383.3"/>
<line class="st2" x1="485" y1="72.9" x2="507.3" y2="54"/>
<line class="st2" x1="494.6" y1="99.8" x2="514.8" y2="94.9"/>
<line class="st2" x1="468.4" y1="54.6" x2="473.5" y2="42"/>
<g class="st3">
	<path d="M125,94.7c1.6,1.2,2.9,2.7,3.7,4.7c0.9,2,1.2,4.1,1.1,6.5c-0.1,2.4-0.8,4.5-1.8,6.4c-1.1,1.8-2.5,3.3-4.2,4.2
		c-1.7,1-3.6,1.4-5.6,1.3c-1.4-0.1-2.8-0.5-4-1.1c-1.2-0.7-2.3-1.4-3-2.3l-0.5,8.8c0,0.8-0.3,1.4-0.9,1.9c-0.5,0.5-1.2,0.7-2,0.7
		c-0.8,0-1.4-0.3-1.9-0.9c-0.5-0.5-0.7-1.2-0.6-2l1.7-27.6c0-0.8,0.3-1.4,0.9-1.9c0.5-0.5,1.2-0.7,2-0.7c0.8,0,1.4,0.4,1.9,0.9
		c0.5,0.6,0.7,1.2,0.6,2l0,0.2c0.8-0.9,1.8-1.6,3.2-2.2c1.3-0.6,2.7-0.9,4.1-0.8C121.5,92.8,123.4,93.5,125,94.7z M122.4,110.9
		c1.3-1.4,2-3.1,2.2-5.3s-0.4-4-1.5-5.5c-1.1-1.5-2.7-2.3-4.6-2.4c-2-0.1-3.6,0.5-4.9,1.8c-1.3,1.4-2,3.1-2.2,5.3s0.4,4,1.5,5.5
		c1.1,1.5,2.7,2.3,4.6,2.5C119.4,112.8,121.1,112.2,122.4,110.9z"/>
	<path d="M155.4,114c-1.2,1.8-2.8,3.2-4.7,4.2c-1.9,0.9-4,1.3-6.3,1.2c-2.3-0.1-4.3-0.8-6.1-2c-1.8-1.2-3.2-2.7-4.1-4.7
		c-1-2-1.4-4.2-1.2-6.6c0.1-2.4,0.8-4.5,2-6.4c1.2-1.8,2.8-3.2,4.7-4.2c1.9-1,4-1.4,6.3-1.2c2.3,0.1,4.3,0.8,6.1,2
		c1.8,1.2,3.2,2.8,4.2,4.7c1,2,1.4,4.2,1.2,6.6C157.3,110,156.6,112.2,155.4,114z M151.3,103.3c-0.5-1.2-1.3-2.1-2.3-2.8
		c-1-0.7-2.1-1.1-3.4-1.2s-2.4,0.2-3.5,0.7c-1.1,0.6-2,1.4-2.6,2.5c-0.7,1.1-1.1,2.4-1.2,3.9c-0.1,1.5,0.1,2.8,0.7,4
		c0.5,1.2,1.3,2.1,2.3,2.8c1,0.7,2.1,1.1,3.4,1.2s2.4-0.2,3.5-0.7c1.1-0.6,2-1.4,2.6-2.5c0.7-1.1,1.1-2.4,1.2-3.9
		C152.1,105.8,151.9,104.5,151.3,103.3z"/>
	<path d="M180.7,98.1c1.6,1.2,2.9,2.7,3.7,4.7c0.9,2,1.2,4.1,1.1,6.5c-0.1,2.4-0.8,4.5-1.8,6.4c-1.1,1.8-2.5,3.3-4.2,4.2
		c-1.7,1-3.6,1.4-5.6,1.3c-1.4-0.1-2.8-0.5-4-1.1c-1.2-0.7-2.3-1.4-3-2.3l0,0.3c0,0.8-0.3,1.4-0.9,1.9c-0.5,0.5-1.2,0.7-2,0.7
		c-0.8,0-1.4-0.3-1.9-0.9c-0.5-0.5-0.7-1.2-0.6-2l1.7-28.3c0-0.8,0.3-1.4,0.9-1.9c0.5-0.5,1.2-0.7,2-0.7c0.8,0,1.4,0.4,1.9,0.9
		c0.5,0.6,0.7,1.2,0.6,2l-0.6,9.4c0.8-0.9,1.8-1.6,3.2-2.2c1.3-0.6,2.7-0.9,4.1-0.8C177.2,96.3,179.1,96.9,180.7,98.1z M178.1,114.3
		c1.3-1.4,2-3.1,2.2-5.3s-0.4-4-1.5-5.5c-1.1-1.5-2.7-2.3-4.6-2.4c-2-0.1-3.6,0.5-4.9,1.8c-1.3,1.4-2,3.1-2.2,5.3s0.4,4,1.5,5.5
		c1.1,1.5,2.7,2.3,4.6,2.5C175.2,116.3,176.8,115.7,178.1,114.3z"/>
	<path d="M193.6,121.1c-0.5,0.5-1.2,0.7-2,0.7c-0.8,0-1.4-0.3-1.9-0.9c-0.5-0.6-0.7-1.2-0.6-2l1.1-18.6c0-0.8,0.3-1.4,0.9-1.9
		c0.5-0.5,1.2-0.7,2-0.7c0.8,0,1.4,0.4,1.9,0.9c0.5,0.6,0.7,1.2,0.6,2l-1.1,18.6C194.4,120,194.1,120.7,193.6,121.1z M191.1,94.2
		c-0.4-0.4-0.6-1-0.5-1.8l0.1-0.9c0.1-0.8,0.3-1.4,0.8-1.7c0.5-0.3,1.2-0.4,2.2-0.4c1.1,0.1,1.8,0.3,2.2,0.6c0.4,0.4,0.6,1,0.5,1.8
		l-0.1,0.9c-0.1,0.9-0.3,1.5-0.8,1.7c-0.5,0.3-1.2,0.4-2.3,0.3C192.2,94.7,191.5,94.5,191.1,94.2z"/>
	<path d="M221.3,112.8c-0.6,0.4-1.2,0.6-1.9,0.6l-14.9-0.9c0.3,1.8,1,3.2,2.2,4.3c1.2,1.1,2.7,1.7,4.3,1.8c1.2,0.1,2.2,0,2.9-0.2
		c0.7-0.2,1.3-0.4,1.7-0.6c0.4-0.2,0.7-0.4,0.9-0.5c0.6-0.2,1.1-0.3,1.6-0.3c0.6,0,1.2,0.3,1.6,0.8s0.6,1,0.6,1.6
		c-0.1,0.8-0.5,1.5-1.4,2.1c-0.9,0.6-2,1.2-3.5,1.5c-1.4,0.4-2.9,0.5-4.3,0.5c-2.5-0.2-4.7-0.8-6.5-2c-1.8-1.2-3.2-2.7-4.1-4.6
		s-1.3-4-1.1-6.3c0.2-2.6,0.8-4.8,2-6.7c1.2-1.9,2.7-3.3,4.6-4.2c1.8-0.9,3.8-1.3,5.8-1.2c2,0.1,3.8,0.8,5.5,2
		c1.7,1.2,3,2.7,3.9,4.6c0.9,1.9,1.3,3.9,1.2,6C222.2,111.8,221.9,112.3,221.3,112.8z M204.8,107.9l11.8,0.7l0-0.3
		c0-1.3-0.6-2.4-1.6-3.4c-1.1-1-2.3-1.5-3.7-1.6C207.8,103.1,205.7,104.7,204.8,107.9z"/>
	<path d="M242.2,101.1c0.6,0.5,0.9,1.2,0.8,1.9c-0.1,0.9-0.3,1.6-0.8,2c-0.5,0.4-1.1,0.6-1.8,0.6c-0.5,0-1-0.2-1.5-0.4
		c-0.1,0-0.3-0.1-0.6-0.2c-0.3-0.1-0.6-0.2-1-0.2c-0.8,0-1.5,0.1-2.3,0.6c-0.8,0.4-1.4,1.1-1.9,2.1c-0.5,0.9-0.8,2.1-0.9,3.4
		l-0.7,10.7c0,0.8-0.3,1.4-0.9,1.9c-0.5,0.5-1.2,0.7-2,0.7c-0.8,0-1.4-0.3-1.9-0.9c-0.5-0.6-0.7-1.2-0.6-2l1.1-18.6
		c0-0.8,0.3-1.4,0.9-1.9c0.5-0.5,1.2-0.7,2-0.7c0.8,0,1.4,0.4,1.9,0.9c0.5,0.6,0.7,1.2,0.6,2l0,0.6c0.8-1.2,1.8-2.1,3.1-2.6
		c1.3-0.6,2.7-0.8,4.2-0.7C240.9,100.2,241.7,100.5,242.2,101.1z"/>
	<path d="M263,121.9c0.5,0.5,0.7,1.1,0.6,1.8c0,0.7-0.3,1.3-0.8,1.7s-1.1,0.7-1.8,0.6l-14.5-0.9c-0.7,0-1.3-0.3-1.7-0.9
		c-0.4-0.5-0.6-1.1-0.6-1.6c0-0.5,0.1-0.9,0.3-1.3c0.1-0.3,0.4-0.7,0.7-1.2l11.6-13.2l-8.7-0.5c-0.7,0-1.3-0.3-1.8-0.8
		c-0.5-0.5-0.7-1.1-0.6-1.8c0-0.7,0.3-1.3,0.8-1.7c0.5-0.4,1.1-0.6,1.8-0.6l13.9,0.9c0.7,0,1.2,0.3,1.6,0.8c0.4,0.5,0.6,1.1,0.6,1.8
		c0,0.5-0.1,0.8-0.2,1.1c-0.1,0.3-0.3,0.7-0.7,1.1l-11.7,13.3l9.4,0.6C261.9,121.2,262.5,121.5,263,121.9z"/>
	<path d="M278.5,122.1c0-0.8,0.5-1.4,1.3-1.9c0.4-0.2,0.9-0.4,1.3-0.3c0.6,0,1.2,0.4,1.7,1c0.8,1,1.7,1.7,2.7,2.2
		c0.9,0.5,2.1,0.8,3.5,0.9c2.3,0.1,3.6-0.8,3.7-2.4c0.1-0.9-0.3-1.6-1.1-2.1c-0.8-0.5-2-1-3.6-1.6c-1.7-0.6-3.1-1.2-4.2-1.7
		c-1.1-0.5-2-1.3-2.7-2.4c-0.7-1-1.1-2.4-1-4c0.1-1.4,0.6-2.7,1.5-3.7c0.9-1,2-1.8,3.4-2.3c1.4-0.5,2.8-0.7,4.3-0.6
		c1.5,0.1,3,0.5,4.5,1.1c1.5,0.7,2.6,1.6,3.4,2.7c0.4,0.5,0.5,1.1,0.5,1.7c0,0.7-0.4,1.2-1,1.7c-0.4,0.3-0.9,0.4-1.5,0.4
		c-0.7,0-1.2-0.3-1.6-0.7c-0.5-0.7-1.2-1.3-2-1.7c-0.8-0.4-1.8-0.7-2.9-0.8c-2.3-0.1-3.5,0.6-3.6,2.3c0,0.7,0.1,1.2,0.5,1.6
		c0.4,0.4,0.9,0.8,1.5,1c0.6,0.3,1.5,0.6,2.7,1c1.6,0.6,2.9,1.1,4,1.6c1.1,0.5,1.9,1.3,2.6,2.4c0.7,1,1,2.4,0.9,4
		c-0.1,1.5-0.6,2.7-1.5,3.8c-0.9,1-2.1,1.8-3.5,2.3s-2.8,0.7-4.3,0.6c-2-0.1-3.8-0.6-5.5-1.3c-1.7-0.8-3-1.9-4-3.5
		C278.5,123.1,278.4,122.6,278.5,122.1z"/>
	<path d="M319.1,125.4c0.5,0.5,0.7,1.1,0.6,1.8c0,0.7-0.3,1.3-0.8,1.7c-0.5,0.5-1.1,0.7-1.8,0.6l-14.5-0.9c-0.7,0-1.3-0.3-1.7-0.8
		c-0.4-0.5-0.6-1.1-0.6-1.6c0-0.5,0.1-0.9,0.3-1.3c0.1-0.3,0.4-0.7,0.8-1.2l11.6-13.2l-8.7-0.5c-0.7,0-1.3-0.3-1.8-0.8
		c-0.5-0.5-0.7-1.1-0.6-1.8c0-0.7,0.3-1.3,0.8-1.7c0.5-0.4,1.1-0.6,1.8-0.6l13.9,0.9c0.7,0,1.2,0.3,1.6,0.8s0.6,1.1,0.6,1.8
		c0,0.5-0.1,0.8-0.2,1.1c-0.1,0.3-0.3,0.7-0.7,1.1L307.9,124l9.4,0.6C318,124.6,318.6,124.9,319.1,125.4z"/>
	<path d="M346.4,107.5c0.5,0.5,0.7,1.2,0.6,2l-1.2,19.1c0,0.8-0.3,1.4-0.9,1.9c-0.5,0.5-1.2,0.7-2,0.7c-0.8,0-1.4-0.3-1.9-0.9
		c-0.5-0.5-0.7-1.2-0.7-2c-0.8,0.8-1.9,1.5-3.2,2c-1.3,0.5-2.7,0.8-4.1,0.7c-2.1-0.1-3.9-0.8-5.5-1.9c-1.6-1.2-2.9-2.7-3.7-4.7
		c-0.9-2-1.2-4.1-1.1-6.5s0.8-4.5,1.8-6.4s2.5-3.3,4.2-4.2c1.7-1,3.6-1.4,5.6-1.3c1.4,0.1,2.8,0.4,4,1c1.2,0.6,2.3,1.3,3.1,2.2l0,0
		c0-0.8,0.3-1.4,0.9-1.9c0.5-0.5,1.2-0.7,2-0.7C345.3,106.7,345.9,106.9,346.4,107.5z M339,124.2c1.3-1.3,2-3.1,2.2-5.3
		s-0.4-4-1.5-5.5c-1.1-1.5-2.7-2.3-4.6-2.5c-1.9-0.1-3.5,0.5-4.9,1.9s-2,3.1-2.2,5.3s0.4,4,1.5,5.5c1.1,1.5,2.7,2.3,4.6,2.4
		C336.1,126.2,337.7,125.6,339,124.2z"/>
	<path d="M371,109.8c1.6,1.2,2.9,2.7,3.7,4.7c0.9,2,1.2,4.1,1.1,6.5s-0.8,4.5-1.8,6.4c-1.1,1.8-2.5,3.3-4.2,4.2s-3.6,1.4-5.6,1.3
		c-1.4-0.1-2.8-0.5-4-1.1c-1.2-0.7-2.3-1.4-3-2.3l0,0.3c0,0.8-0.3,1.4-0.9,1.9c-0.5,0.5-1.2,0.7-2,0.7c-0.8,0-1.4-0.3-1.9-0.9
		c-0.5-0.5-0.7-1.2-0.6-2l1.7-28.3c0-0.8,0.3-1.4,0.9-1.9c0.5-0.5,1.2-0.7,2-0.7c0.8,0,1.4,0.4,1.9,0.9s0.7,1.2,0.6,2l-0.6,9.4
		c0.8-0.9,1.8-1.6,3.2-2.2c1.3-0.6,2.7-0.9,4.1-0.8C367.6,108,369.4,108.7,371,109.8z M368.5,126c1.3-1.4,2-3.1,2.2-5.3
		c0.1-2.2-0.4-4-1.5-5.5c-1.1-1.5-2.7-2.3-4.6-2.4c-2-0.1-3.6,0.5-4.9,1.8c-1.3,1.4-2,3.1-2.2,5.3s0.4,4,1.5,5.5
		c1.1,1.5,2.7,2.3,4.6,2.5C365.5,128,367.1,127.4,368.5,126z"/>
</g>
<g class="st3">
	<path d="M384.7,132.9c-0.6,0.5-1.2,0.7-2,0.7c-0.8,0-1.4-0.3-1.8-0.9c-0.5-0.6-0.7-1.2-0.6-2l1.7-27.8c0-0.8,0.4-1.4,0.9-1.9
		c0.6-0.5,1.2-0.7,2-0.7c0.8,0,1.4,0.3,1.8,0.9c0.5,0.6,0.7,1.2,0.6,2l-1.7,27.8C385.6,131.8,385.2,132.4,384.7,132.9z"/>
</g>
<g class="st3">
	<path d="M413.2,129.9c-1.2,1.8-2.8,3.2-4.7,4.2c-1.9,0.9-4,1.3-6.3,1.2c-2.3-0.1-4.3-0.8-6.1-2c-1.8-1.2-3.2-2.7-4.1-4.7
		c-1-2-1.4-4.2-1.2-6.6c0.1-2.4,0.8-4.5,2-6.4c1.2-1.8,2.8-3.2,4.7-4.2s4-1.4,6.3-1.2c2.3,0.1,4.3,0.8,6.1,2
		c1.8,1.2,3.2,2.8,4.2,4.7c1,2,1.4,4.2,1.2,6.6S414.4,128.1,413.2,129.9z M409.1,119.2c-0.5-1.2-1.3-2.1-2.3-2.8s-2.1-1.1-3.4-1.2
		c-1.3-0.1-2.4,0.2-3.5,0.7c-1.1,0.6-2,1.4-2.6,2.5c-0.7,1.1-1.1,2.4-1.2,3.9c-0.1,1.5,0.1,2.8,0.7,4s1.3,2.1,2.3,2.8
		c1,0.7,2.1,1.1,3.4,1.2c1.3,0.1,2.4-0.2,3.5-0.7c1.1-0.6,2-1.4,2.6-2.5c0.7-1.1,1.1-2.4,1.2-3.9
		C409.9,121.7,409.6,120.4,409.1,119.2z"/>
	<path d="M439.5,115.2c1.1,1.9,1.5,4.4,1.3,7.7l-0.7,11.5c0,0.8-0.3,1.4-0.9,1.9c-0.5,0.5-1.2,0.7-2,0.7c-0.8,0-1.4-0.3-1.9-0.9
		c-0.5-0.6-0.7-1.2-0.6-2l0.7-11.5c0.1-1.7-0.2-3-0.8-4c-0.6-1-1.8-1.5-3.5-1.6c-1.7-0.1-3.1,0.3-4.2,1.3c-1.1,0.9-1.6,2.2-1.7,3.7
		l-0.7,11.5c0,0.8-0.3,1.4-0.9,1.9c-0.5,0.5-1.2,0.7-2,0.7c-0.8,0-1.4-0.3-1.9-0.9c-0.5-0.6-0.7-1.2-0.6-2l1.1-18.6
		c0-0.8,0.3-1.4,0.9-1.9c0.5-0.5,1.2-0.7,2-0.7c0.8,0,1.4,0.4,1.9,0.9c0.5,0.6,0.7,1.2,0.6,2l0,0.8c0.9-1,2-1.9,3.3-2.6
		s2.8-1,4.4-0.9C436.4,112.3,438.5,113.3,439.5,115.2z"/>
</g>
<path class="st4" d="M76.2,286.6H175c3.9,0,7.1,3.2,7.1,7.1v100.5c0,3.9-3.2,7.1-7.1,7.1H76.2c-3.9,0-7.1-3.2-7.1-7.1V293.6
	C69.2,289.7,72.3,286.6,76.2,286.6z"/>
<path class="st5" d="M99.8,325.3c4.1-0.6,8.2-0.9,12.3-0.8c5.6,0,9.6,1.1,12.3,3.2c2.8,2.3,4.4,5.7,4.3,9.3c0.1,3.6-1.2,7-3.7,9.6
	c-3.1,2.9-7.7,4.2-13.1,4.2c-1,0-2.1,0-3.1-0.2v14.4h-9L99.8,325.3z M108.8,343.6c1,0.2,2,0.3,3.1,0.2c4.8,0,7.8-2.5,7.8-6.6
	c0-3.7-2.6-5.9-7.1-5.9c-1.3,0-2.5,0.1-3.8,0.4L108.8,343.6z"/>
<path class="st5" d="M133,357.1c2.4,1.3,5.1,2.1,7.8,2.2c2.8,0,3.9-1,3.9-2.5s-0.9-2.2-4.3-3.4c-6-2-8.4-5.3-8.3-8.8
	c0-5.4,4.7-9.6,11.9-9.6c2.8,0,5.7,0.5,8.2,1.7l-1.6,6.3c-2-1-4.1-1.6-6.3-1.7c-2.2,0-3.5,0.9-3.5,2.4s1.1,2.1,4.7,3.4
	c5.6,1.9,7.9,4.7,7.9,9c0,5.4-4.3,9.4-12.7,9.4c-3.3,0.1-6.5-0.6-9.4-2L133,357.1z"/>
<path class="st6" d="M213.7,286.6h98.8c3.9,0,7.1,3.2,7.1,7.1v100.5c0,3.9-3.2,7.1-7.1,7.1h-98.8c-3.9,0-7.1-3.2-7.1-7.1V293.6
	C206.6,289.7,209.8,286.6,213.7,286.6z"/>
<path class="st5" d="M248.8,354.8l-2.9,10.4h-9.4l12.3-40.3h12l12.5,40.3h-9.8l-3.1-10.4H248.8z M259,347.9l-2.5-8.5
	c-0.7-2.4-1.4-5.4-2-7.8h-0.1c-0.6,2.4-1.2,5.4-1.9,7.8l-2.4,8.5H259z"/>
<path class="st5" d="M287.4,327.7c0,2.5-2,4.6-4.6,4.6c-0.1,0-0.2,0-0.3,0c-2.5,0-4.6-2.1-4.5-4.6s2.1-4.6,4.6-4.5
	c2.5-0.2,4.7,1.7,4.8,4.3C287.4,327.5,287.4,327.6,287.4,327.7z M278,365.1v-29.2h9.1v29.2H278z"/>
<path class="st7" d="M353,286.6h98.8c3.9,0,7.1,3.2,7.1,7.1v100.5c0,3.9-3.2,7.1-7.1,7.1H353c-3.9,0-7.1-3.2-7.1-7.1V293.6
	C346,289.7,349.2,286.6,353,286.6z"/>
<line class="st8" x1="125.5" y1="217.3" x2="125.5" y2="256.4"/>
<polygon class="st9" points="100.9,236.5 105.3,232.4 125.5,254.1 145.6,232.4 150,236.5 125.5,262.9 "/>
<line class="st8" x1="259" y1="217.3" x2="259" y2="256.4"/>
<polygon class="st9" points="234.5,236.5 238.9,232.4 259,254.1 279.1,232.4 283.5,236.5 259,262.9 "/>
<line class="st8" x1="392.5" y1="217.3" x2="392.5" y2="256.4"/>
<polygon class="st9" points="368,236.5 372.4,232.4 392.5,254.1 412.7,232.4 417.1,236.5 392.5,262.9 "/>
<g class="st3">
	<path class="st5" d="M360.6,329.8h24.1v6.7h-16.5v6.2h15v6.7h-15v7.3h16.5v6.7h-24.1V329.8z"/>
	<path class="st5" d="M390,329.8h15.3c6.9,0,11.1,4.9,11.1,11.1c0,6.5-4.3,11.3-11.1,11.3h-7.8v11.3H390V329.8z M403.8,345.5
		c3.2,0,4.9-1.5,4.9-4.6c0-2.9-1.8-4.4-4.9-4.4h-6.3v9H403.8z"/>
	<path class="st5" d="M418.8,352h7.7c0.3,3.7,2.9,5.3,6.5,5.3c4.6,0,6.3-1.4,6.3-3.5c0-1.8-1.1-2.9-4.1-3.6l-4.9-1.1
		c-5.8-1.3-10.4-3.7-10.4-10.1c0-5.7,5.2-9.7,13.1-9.7c7.7,0,13.4,4.5,13.4,11h-7.7c-0.2-2.2-1.9-4.2-5.9-4.2
		c-3.9,0-5.3,1.5-5.3,2.9c0,1.3,0.7,2.5,3.8,3.1l4.6,1c6.3,1.3,11,3.9,11,10.5c0,6-3.9,10.4-14.1,10.4
		C424,363.9,419.3,359.2,418.8,352z"/>
</g>
</svg>
