<?xml version="1.0" encoding="utf-8"?>
<!-- Generator: Adobe Illustrator 24.1.0, SVG Export Plug-In . SVG Version: 6.00 Build 0)  -->
<svg version="1.1" id="Warstwa_1" xmlns="http://www.w3.org/2000/svg" xmlns:xlink="http://www.w3.org/1999/xlink" x="0px" y="0px"
	 viewBox="0 0 49.6 49.6" style="enable-background:new 0 0 49.6 49.6;" xml:space="preserve">
<style type="text/css">
	.st0{fill:#FFFFFF;}
</style>
<circle cx="24.8" cy="24.8" r="24.8"/>
<g id="_2B3NnZ">
	<path class="st0" d="M31.5,10.5v5.7h-4.2c-0.8,0-1.3,0.3-1.4,1.2s0,1.8,0,2.8h5.6v5.6h-5.7v13.4h-5.2V25.7h-4.2v-5.6h4.2v-0.4
		c0-1.3,0-2.7,0.1-4c0-1.4,0.6-2.8,1.6-3.8c0.8-0.8,1.9-1.3,3-1.3C27.4,10.5,29.4,10.5,31.5,10.5 M31.5,8.5L31.5,8.5h-1.8
		c-1.4,0-2.9,0-4.4,0.1c-1.6,0.1-3.1,0.7-4.3,1.9c-1.4,1.4-2.2,3.2-2.2,5.2c-0.1,0.8-0.1,1.7-0.1,2.5h-2.2c-1.1,0-2,0.9-2,2v5.6
		c0,1.1,0.9,2,2,2h2.2v11.4c0,1.1,0.9,2,2,2h5.2c1.1,0,2-0.9,2-2V27.7h3.7c1.1,0,2-0.9,2-2v-5.6c0-1-0.7-1.9-1.7-2
		c1-0.2,1.6-1,1.6-2v-5.7c0-0.5-0.2-1-0.6-1.4C32.5,8.7,32,8.5,31.5,8.5L31.5,8.5z"/>
</g>
</svg>
