<?xml version="1.0" encoding="utf-8"?>
<!-- Generator: Adobe Illustrator 24.1.0, SVG Export Plug-In . SVG Version: 6.00 Build 0)  -->
<svg version="1.1" id="Warstwa_1" xmlns="http://www.w3.org/2000/svg" xmlns:xlink="http://www.w3.org/1999/xlink" x="0px" y="0px"
	 viewBox="0 0 49.6 49.6" style="enable-background:new 0 0 49.6 49.6;" xml:space="preserve">
<style type="text/css">
	.st0{fill:#FFFFFF;stroke:#FFFFFF;stroke-miterlimit:10;}
</style>
<circle cx="24.8" cy="24.8" r="24.8"/>
<path class="st0" d="M38.5,24.9c0,1.9,0,3.7,0,5.6c-0.1,4.4-3.6,7.9-8,8.1c-3.8,0.1-7.6,0.1-11.4,0c-4.4-0.2-7.9-3.7-8-8.1
	c-0.1-3.8-0.1-7.6,0-11.4c0-4.1,3.2-7.5,7.2-7.9c4.3-0.3,8.7-0.3,13,0c4,0.4,7.1,3.8,7.2,7.8C38.5,21,38.5,22.9,38.5,24.9L38.5,24.9
	z M24.8,13.1c-1.7,0-3.4,0-5.1,0c-3.5-0.1-6.4,2.6-6.6,6.1c0,0.2,0,0.3,0,0.5c0,3.4,0,6.9,0,10.3c-0.1,3.5,2.6,6.4,6,6.5
	c0.1,0,0.1,0,0.2,0c3.7,0.1,7.3,0.1,11,0c3.4,0,6.2-2.8,6.2-6.2c0.1-3.7,0.1-7.3,0-11c-0.1-3.4-2.8-6.1-6.2-6.1
	C28.4,13.1,26.6,13.1,24.8,13.1z"/>
<path d="M24.8,13.1c1.8,0,3.6,0,5.4,0c3.4,0,6.2,2.7,6.2,6.1c0.1,3.7,0.1,7.3,0,11c0,3.4-2.8,6.2-6.2,6.2c-3.6,0.1-7.3,0.1-11,0
	c-3.5-0.1-6.2-2.9-6.2-6.4c0,0,0-0.1,0-0.1c0-3.4,0-6.8,0-10.3c-0.1-3.5,2.6-6.4,6.1-6.6c0.2,0,0.3,0,0.5,0
	C21.4,13.1,23.1,13.1,24.8,13.1z M24.8,31.7c3.8,0.1,6.9-3,7-6.8c0-0.1,0-0.1,0-0.2c0.4-3.8-2.4-7.3-6.3-7.7
	c-3.8-0.4-7.3,2.4-7.7,6.3c0,0.5,0,0.9,0,1.4c0,3.8,3,6.9,6.8,7C24.7,31.7,24.8,31.7,24.8,31.7L24.8,31.7z M32.5,18.9
	c1,0,1.8-0.7,1.8-1.6c0-0.1,0-0.1,0-0.2c0-1-0.8-1.8-1.8-1.8c-1,0-1.8,0.8-1.8,1.8c0,0,0,0,0,0c-0.1,0.9,0.7,1.8,1.6,1.8
	C32.4,18.9,32.4,18.9,32.5,18.9L32.5,18.9z"/>
<path class="st0" d="M24.8,31.7c-3.8,0-6.9-3-7-6.8c0,0,0-0.1,0-0.1c-0.4-3.8,2.4-7.3,6.3-7.7c3.8-0.4,7.3,2.4,7.7,6.3
	c0,0.5,0,0.9,0,1.4C31.8,28.6,28.7,31.7,24.8,31.7C24.8,31.7,24.8,31.7,24.8,31.7z M29.6,24.7c-0.3-2.7-2.6-4.6-5.3-4.3
	c-2.3,0.2-4.1,2-4.3,4.3c-0.1,2.7,1.9,4.9,4.6,5.1s4.9-1.9,5.1-4.6C29.7,25.1,29.7,24.9,29.6,24.7L29.6,24.7z"/>
<path class="st0" d="M32.5,18.9c-0.9,0-1.7-0.7-1.8-1.7c0,0,0-0.1,0-0.1c0-1,0.8-1.8,1.8-1.8c1,0,1.8,0.8,1.8,1.8
	c0.1,1-0.7,1.8-1.6,1.8C32.6,18.9,32.6,18.9,32.5,18.9z"/>
<path d="M29.6,24.8c0.3,2.7-1.7,5-4.4,5.3s-5-1.7-5.3-4.4c0-0.3,0-0.7,0-1c0.1-2.7,2.4-4.7,5.1-4.6C27.6,20.3,29.6,22.3,29.6,24.8
	L29.6,24.8z"/>
</svg>
