<?xml version="1.0" encoding="utf-8"?>
<!-- Generator: Adobe Illustrator 24.1.0, SVG Export Plug-In . SVG Version: 6.00 Build 0)  -->
<svg version="1.1" id="Warstwa_1" xmlns="http://www.w3.org/2000/svg" xmlns:xlink="http://www.w3.org/1999/xlink" x="0px" y="0px"
	 viewBox="0 0 718.3 264.4" style="enable-background:new 0 0 718.3 264.4;" xml:space="preserve">
<style type="text/css">
	.st0{fill:none;stroke:#113BD4;stroke-width:47;stroke-miterlimit:10;}
	.st1{fill:#5243DE;}
	.st2{fill:#FFFFFF;stroke:#231F20;stroke-width:5;stroke-miterlimit:10;}
	.st3{font-family:'Quicksand-Bold';}
	.st4{font-size:59.5797px;}
	.st5{letter-spacing:-1;}
	.st6{fill:none;stroke:#231F20;stroke-width:5;stroke-linecap:round;stroke-linejoin:round;}
	.st7{fill:none;stroke:#EA3826;stroke-width:58;stroke-miterlimit:10;}
</style>
<path class="st0" d="M62.6,78.8c51.1-10.2,135.6-6.9,222.3,83.2c95.4,99.2,241.2,104.9,317.9-18.6"/>
<polygon class="st1" points="534.5,113.9 506.4,130 515.6,161 483.3,160.9 475.7,192.3 447.8,176.1 425.5,199.5 409.5,171.4 
	378.4,180.6 378.6,148.3 347.1,140.7 363.4,112.8 340,90.5 368,74.5 358.9,43.5 391.2,43.6 398.7,12.1 426.7,28.4 448.9,5 465,33 
	496,23.9 495.9,56.2 527.3,63.7 511,91.7 "/>
<polygon class="st2" points="602.1,181.4 108.9,145.2 115.4,61.8 608.6,98 "/>
<text transform="matrix(0.9968 7.974522e-02 -7.974522e-02 0.9968 140.1901 122.6107)" class="st3 st4">dołącz do a</text>
<text transform="matrix(0.9968 7.974522e-02 -7.974522e-02 0.9968 469.7602 148.9763)" class="st3 st4 st5">k</text>
<text transform="matrix(0.9968 7.974522e-02 -7.974522e-02 0.9968 502.2502 151.5755)" class="st3 st4">cji!</text>
<line class="st6" x1="664.5" y1="76.2" x2="699.1" y2="47.4"/>
<line class="st6" x1="678.9" y1="110.4" x2="710" y2="103.2"/>
<line class="st6" x1="639.3" y1="47.8" x2="647.3" y2="28.5"/>
<line class="st7" x1="17.7" y1="130.8" x2="183.3" y2="204.7"/>
<path d="M60.6,239.4c-1.4-0.7-2.5-1.9-3-3.4l-0.6-1.5c-0.7-1.4-0.7-3.1-0.2-4.5c0.7-1.4,2-2.5,3.5-3l1.2-0.5
	c1.4-0.7,3.1-0.8,4.6-0.2c1.4,0.7,2.5,1.9,3,3.4l0.6,1.5c0.7,1.4,0.7,3.1,0.2,4.5c-0.7,1.4-2,2.5-3.5,3l-1.2,0.5
	C63.8,239.9,62.1,240,60.6,239.4z M53.5,217.2L38,185.4c-0.8-1.6-0.9-3.5-0.3-5.2c0.6-1.7,2-3,3.7-3.6c3.1-1.3,6.7,0.1,8.1,3.2
	c0.1,0.3,0.2,0.7,0.3,1l10.3,33.8c0.7,2.3,0.1,3.9-1.9,4.7S54.5,219.4,53.5,217.2L53.5,217.2z"/>
<path d="M87.9,228.7c-1.4-0.7-2.5-1.9-3-3.4l-0.6-1.5c-0.7-1.4-0.7-3.1-0.2-4.5c0.7-1.4,2-2.5,3.5-3l1.2-0.5
	c1.4-0.7,3.1-0.7,4.6-0.2c1.4,0.7,2.5,1.9,3,3.4l0.6,1.5c0.7,1.4,0.7,3.1,0.2,4.5c-0.7,1.4-2,2.5-3.5,3l-1.2,0.5
	C91,229.2,89.4,229.3,87.9,228.7z M80.7,206.5l-15.5-31.8c-0.8-1.6-0.9-3.5-0.3-5.2c0.6-1.7,2-3,3.7-3.6c3.1-1.3,6.7,0.1,8.1,3.2
	c0.1,0.3,0.2,0.7,0.3,1l10.3,33.8c0.7,2.3,0.1,3.9-1.9,4.7S81.8,208.7,80.7,206.5z"/>
<path d="M115.1,218c-1.4-0.7-2.5-1.9-3-3.4l-0.6-1.5c-0.7-1.4-0.7-3.1-0.2-4.5c0.7-1.4,2-2.5,3.5-3l1.2-0.5c1.4-0.7,3.1-0.7,4.6-0.2
	c1.4,0.7,2.5,1.9,3,3.4l0.6,1.5c0.7,1.4,0.7,3.1,0.2,4.5c-0.7,1.4-2,2.5-3.5,3l-1.2,0.5C118.2,218.5,116.6,218.5,115.1,218z
	 M107.9,195.8L92.4,164c-0.8-1.6-0.9-3.5-0.3-5.2c0.6-1.7,2-3,3.7-3.6c3.1-1.3,6.7,0.1,8.1,3.2c0.1,0.3,0.2,0.6,0.3,1l10.3,33.8
	c0.7,2.3,0.1,3.9-1.9,4.7S109,198,107.9,195.8L107.9,195.8z"/>
</svg>
