<?xml version="1.0" encoding="utf-8"?>
<!-- Generator: Adobe Illustrator 24.1.0, SVG Export Plug-In . SVG Version: 6.00 Build 0)  -->
<svg version="1.1" id="Warstwa_1" xmlns="http://www.w3.org/2000/svg" xmlns:xlink="http://www.w3.org/1999/xlink" x="0px" y="0px"
	 viewBox="0 0 49.6 49.6" style="enable-background:new 0 0 49.6 49.6;" xml:space="preserve">
<style type="text/css">
	.st0{fill:#FFFFFF;}
</style>
<circle cx="24.8" cy="24.8" r="24.8"/>
<path class="st0" d="M24.8,36.9H14.2c-2.2,0-3.7-1.7-3.7-4.2V17.1c0-2.7,1.4-4.4,3.8-4.4h21c2.2,0,3.7,1.7,3.7,4.2v15.7
	c0,2.5-1.5,4.2-3.7,4.2H24.8z M13.3,17.6v0.8c0,4.7,0,9.4,0,14.1c0,1,0.2,1.2,1.1,1.2h20.8c0.9,0,1.1-0.2,1.1-1.3V19.1
	c0-0.2,0-0.4,0-0.7c-0.2,0.2-0.4,0.3-0.6,0.4c-3.5,2.8-6.9,5.7-10.4,8.5c-0.2,0.2-0.5,0.3-0.7,0.1c0,0-0.1-0.1-0.1-0.1
	c-2.7-2.4-5.4-4.8-8.1-7.1L13.3,17.6z M34.6,15.9H16c0,0.1,0.1,0.1,0.1,0.2c2.9,2.5,5.7,5,8.6,7.5c0.3,0.2,0.4,0.1,0.6-0.1l3.6-3
	L34.6,15.9z"/>
</svg>
