<?xml version="1.0" encoding="utf-8"?>
<!-- Generator: Adobe Illustrator 24.1.0, SVG Export Plug-In . SVG Version: 6.00 Build 0)  -->
<svg version="1.1" id="Warstwa_1" xmlns="http://www.w3.org/2000/svg" xmlns:xlink="http://www.w3.org/1999/xlink" x="0px" y="0px"
	 viewBox="0 0 170.3 169.6" style="enable-background:new 0 0 170.3 169.6;" xml:space="preserve">
<style type="text/css">
	.st0{fill:#E3B6E7;}
</style>
<polygon class="st0" points="168.4,87.7 145.6,103.3 155.7,129.1 128.1,131.3 123.9,158.6 99,146.7 81.7,168.3 66,145.5 40.2,155.5 
	38,128 10.7,123.8 22.6,98.8 1,81.5 23.8,65.8 13.8,40.1 41.3,37.9 45.5,10.6 70.5,22.5 87.8,0.9 103.5,23.7 129.2,13.7 131.4,41.2 
	158.7,45.4 146.9,70.4 "/>
<path d="M9.2,104.9c-1.2-0.1-2.1-1.2-2-2.4c0.1-0.7,0.4-1.2,1-1.6l93-61.2l0.1-0.1l4.4-2.5c2.7-1.1,3.3-0.7,4,0.3s-0.6,2.7-1.6,3.3
	c-0.1,0-0.1,0.1-0.2,0.1l-4.3,2.5l-87.3,57.4l110.2,3.8c1.2,0,2.2,0.9,2.2,2.1c0,1.2-1.8,2.4-3,2.4c-0.1,0-0.2,0-0.3,0L9.3,104.9
	L9.2,104.9z"/>
<path d="M124.9,109.1c-3.1-0.2-6.4-3.4-9.9-9.7c-3.9-7.6-6.9-15.5-9-23.8c-2.3-8.2-3.6-16.6-3.9-25.2c-0.1-8.3,1.7-13,5.2-13.9
	s7.4,2.3,11.4,9.5c3.9,7.6,6.9,15.5,9,23.8l0,0c2.3,8.2,3.6,16.6,3.9,25.1c0.1,8.3-1.6,13-5.2,13.9
	C126,109.1,125.5,109.1,124.9,109.1z M108.6,41.4c-0.5,0.4-1.7,2.9-1.5,9.9c0.4,7.8,1.6,15.5,3.7,23.1c1.9,7.6,4.6,14.9,8.1,21.9
	c3.3,6.2,5.6,7.8,6.2,7.9c0.5-0.4,1.7-2.9,1.5-9.9c-0.4-7.8-1.6-15.5-3.7-23.1l0,0c-1.9-7.6-4.6-14.9-8.2-21.9
	C111.6,43.1,109.3,41.5,108.6,41.4z"/>
<path d="M40.5,92c-1.4-0.1-2.4-1.3-2.4-2.7c0.1-1,0.7-1.8,1.5-2.2l64.1-25.5c1.3-0.6,2.8,0,3.3,1.3s0,2.8-1.3,3.3L41.6,91.8
	C41.3,91.9,40.9,92,40.5,92z"/>
<path d="M42.8,100.3c-1.4-0.1-2.4-1.3-2.3-2.7c0.1-1.2,0.9-2.1,2.1-2.3l69.3-9.7c1.4-0.2,2.7,0.7,2.9,2.1s-0.7,2.7-2.1,2.9
	l-69.3,9.7C43.2,100.3,43,100.3,42.8,100.3z"/>
<path d="M132.6,49c-1.2-0.1-2.1-1.1-2-2.3c0-0.6,0.3-1.1,0.7-1.5l16.4-15.3c0.9-0.8,2.3-0.8,3.1,0.1c0.8,0.9,0.8,2.3-0.1,3.1
	l-16.5,15.3C133.8,48.8,133.2,49,132.6,49z"/>
<path d="M159,92.1h-0.1l-15.6-1.9c-1.2-0.1-2.1-1.1-2-2.3c0.1-1.2,1.1-2.1,2.3-2c0.1,0,0.2,0,0.2,0l15.6,1.9c1.2,0.2,2,1.3,1.8,2.5
	C161,91.4,160.1,92.1,159,92.1L159,92.1z"/>
<path d="M141,69.2c-1.2-0.1-2.1-1.1-2-2.3c0.1-0.9,0.7-1.7,1.5-1.9l21.3-6.3c1.1-0.4,2.4,0.2,2.8,1.3c0.4,1.1-0.2,2.4-1.3,2.8
	c-0.1,0-0.2,0.1-0.3,0.1l-21.3,6.3C141.5,69.2,141.2,69.2,141,69.2z"/>
<path d="M51.8,136.2c-1.1-0.1-2-0.8-2.3-1.8L35.8,86.3c-0.4-1.3,0.4-2.7,1.7-3.1c1.3-0.4,2.7,0.4,3.1,1.7l13.2,46.4l13.8,0.6L61,106
	c-0.3-1.4,0.5-2.7,1.8-3.1c1.4-0.3,2.7,0.5,3.1,1.8l0,0l7.4,29.1c0.4,1.3-0.4,2.7-1.8,3.1c-0.3,0.1-0.5,0.1-0.8,0.1L51.8,136.2
	L51.8,136.2z"/>
<polygon points="23.6,92.3 25.9,104.3 7.7,103.4 "/>
</svg>
